<svg version="1.1" id="レイヤー_1" xmlns="http://www.w3.org/2000/svg" xmlns:xlink="http://www.w3.org/1999/xlink" x="0" y="0" viewBox="0 0 375 136.7" xml:space="preserve"><style>.st7{fill:#819600}</style><g id="レイヤー_2_00000038405921497240603870000013197009969320116139_"><g opacity=".8" id="therapy_list_all"><defs><path id="SVGID_1_" d="M0-14.8h375v151.3H0z"/></defs><clipPath id="SVGID_00000001660790376403916970000013694014909469906846_"><use xlink:href="#SVGID_1_" overflow="visible"/></clipPath><g clip-path="url(#SVGID_00000001660790376403916970000013694014909469906846_)"><linearGradient id="SVGID_00000179627334651950190500000009881099021941258672_" gradientUnits="userSpaceOnUse" x1="201.345" y1="140.26" x2="201.345" y2="-65.01" gradientTransform="matrix(1 0 0 -1 3.7 133.24)"><stop offset="0" stop-color="#b8d200"/><stop offset=".75" stop-color="#9fb700"/></linearGradient><path d="M341.6 8.7l-11.5-2c-1.2-.4-2.4-.9-3.5-1.3-4-1.6-7.5-2.6-12.3-1.9-5 .7-9.2 2.7-13.6 4.1-8.9 2.9-12 4.2-23.8 4.2-3.2-2.4-11.5-3.7-15.1-5.9-2-1.2-4.5 0-7.1-.6-1.7-.4-3.6-.2-5.1.7-4.5 2-8.1 2.3-12 4.8-.7.5-5.3-.2-6 .3-7.6-2-10.7-3.7-18.4-5.5-3.9-.9-7.9-.9-11.9-.2-3.3.7-6.4 1.7-9.5 3.1-3 1.2-6 2.5-9.3 3.5-3.8 1.1-7.6 1.7-11.5 1.8-11.1.5-22.2-.1-33.1 1.7-4.2.7-8.2 2.4-11.7 4.9-2.7 2-5.7 3.5-8.9 4.3-5.1 1.2-9.6 4.3-14.8 4.6-4.8.3-9.2 2-14 2.3-3.1.2-6.2 2.7-9.4 3.1l-10.6 1.2v110.7h273.2V8.7zM125.7 22.2c0-.1 0-.1.1-.1l.9-.3-1 .4z" fill="url(#SVGID_00000179627334651950190500000009881099021941258672_)"/><path d="M373.1 16.7c-1.9.1-3.8.1-5.6 0-3.4-.2-6.7-.5-10-.8-2.8-.3-5.5-.6-8.3-1.1-2.8-.5-5.7-.8-8.6-1-3.2-.1-6.3-.4-9.5-1-2.9-.6-5.8-1.4-8.8-1.9-2.8-.6-5.6-.8-8.4-.8-2.8.2-5.5.7-8.1 1.5-6 1.6-11.8 3.7-18.4 3.6-2.8-.1-5.5-.3-8.2-.4 7.6-.4 15.3-.5 22-3.1 3.8-1.5 7.4-3.5 11.7-4.4 4.1-.9 7.3-.1 10.8 1 8 2.6 17 4 25.8 5.4 3.6.6 7 1.2 10.7 1.6 3.2.3 6.5.5 9.8.6 2.1.1 4.3.1 6.4 0-1 .5-2.1.8-3.3.8zM212.8 9.1c-1.9.4-1.1 1.9-.5 2.7 1 1.3 2 2.5 3.2 3.5-1.4 0-2.8-.4-4-1-3.4-1.5-6.8-3.4-11.2-2.2-2.3.6-4.2 1.6-6.4 2.3-3 .8-6.1 1.2-9.2 1.3-3.9.2-7.8.1-11.6-.1 1.2 0 2.5-.1 3.7-.1 3.4-.1 6.8-.6 10.1-1.5 2.8-.9 5.5-1.9 8.1-3.1 2.7-1.2 5.4-2.1 8.3-2.7 3.4-.6 7-.6 10.4.2 1.8.4 3.4.9 5.1 1.3-1.9-.4-4.2-1-6-.6zm110 52.1c-2-.2-4 0-5.7-.8-1.1-.7-2.2-1.2-3.3-1.8-.6-.2-1.2-.4-1.8-.7-.6-.3-1.1-.8-1.4-1.3-.3-.6-.8-1.1-1.5-1.3-.4-.1-.7-.1-1.1-.1-.9-.1-1.7-.4-2.4-.9-1.1-.9-1.5-1.9-2.5-2.8-.7-.6-1.4-1-2.1-1.4 1.2.3 2.2.8 3.2 1.5.5.5 2.2 2.4 3 2.3 1.2-.1 2.5 0 3.7.3.8.3 1.4 1 1.8 1.7l.9.3c.7.4.9.9 1.4 1.4.1.2.3.4.4.6l.2.2c.2.2.3.4.3.6.6.7 1.4 1.2 2.3 1.4 1.1.3 2.6.3 3.8.5.7.1 1.3.3 1.9.5-.3-.1-.7-.1-1.1-.2zM274 21.5c-2-1.1-3.7-2.5-5.5-3.7-2-1.3-4.1-2.5-6.3-3.5-2-1-3.8-2.4-5.2-4.2-.6-.7-1.2-1.4-1.9-2-.2-.2-.4-.3-.6-.5 1.9.7 3.7 1.5 5.4 2.6 4.6 2.8 8.5 5.9 12.5 9 2.6 1.9 5.3 3.6 8.2 5.1-2.2-.8-4.5-1.7-6.6-2.8zm-42.4-.1c2.7-1.2 4.1-3.1 6.6-4.4 2.4-1.2 5.2-2 7.4-3.3.9-.6 1.6-1.3 2.3-2.1.5-.5 1-.9 1.7-1.2 1-.4.8.6.6.9 0 .1.1.1.2.1.1 1 .6 2 .6 3 0 .9-.3 1.9-.6 2.8-.4 1.1-.7 2.2-1.1 3.3-.1.4-.3.8-.4 1.2-.2.6-1-.2-1.3-.4-.5-.3-1.1-.5-1.7-.4l-4.2.3c-2.2.1-4.6-.2-6.7.3-3.6.9-5.7 3.3-9.8 3.4 1.1-1.7 4-2.4 6.4-3.5zm20.5 11v-.8c.1-.8 1.1-1.7 1.8-2.4 0-.2.1-.3.2-.5.2-.9-.7-2.3 1.1-2.7.5-.1 1 .3 1 .6s-.4.8-.5 1.2c0 .2 0 .5.1.7.2.1.3.3.4.5.3.7.4 1.5.3 2.2.6.8 1.2 1.2.8 2.2-.2.4 0 .8 0 1.2s.2.5.1.7c0 .1-.1.1-.1.1l.6.6c.8.6 1.5 1.3 2 2.1l.1.1c.1 0 .2.1.3.2.7.1 1.5 0 2.2.1.8.1 1.6.7 1.6 1.2v.9c-.1.6.1 1.2.6 1.5.3.1.6.3.8.5 1.5 1 3.1 1.9 4.7 2.7.6.3 0 .8-.6.6-.3-.1-.6-.2-.9-.4-.7-.3-1.5-.6-2.2-.9-.4-.2-1.8-1.2-2.3-1.1-1.1.1-2.3-.4-2.9-1.4-.6-.9-2.5-.8-3.3-1.7-.2-.2-.3-.6-.3-.9 0-.6-.6-1.1-1-1.7-.1-.1-.1-.1 0-.2-1.1-.7-2.6-1.2-3.2-2.1-.1-.2-.2-.4-.2-.6-.7-.2-1.2-.8-1.1-1.6 0-.2-.2-.5-.1-.9zm8.7-8.3c.1-.5.5-.9 0-1.3-.2-.1-.3-.4-.2-.7V22c.1-.2.7 0 .8.1.4.7 1.9.7 1.6 1.6-.1.7.1 1.5.5 2.1.3.6.5 1.2.6 1.8.2.5.1 1-.2 1.4-.3.4-.7.5-.5 1 .2.2.2.5.1.8-.1.2-.1.4 0 .6.4.3.8.4 1.2.5 1.2.2 2.4.6 3.4 1.3-.2-.1 1.1.1 1.1.1.9.2 1.8.4 2.6.7 1.4.4 2.8.9 4.2 1.5.3.1.2.5-.2.5-1.1-.1-2.1-.3-3.2-.4-1.1-.1-2.2 0-3.3-.1-2-.2-3.2-.5-4.2-1.7-.6-.5-1.2-1-1.8-1.4h-.6c-1.5-.4-1.8-1.2-1.5-2.2 0-.2-.1-.1-.3-.5s.1-.8.6-1.1c1.9-1.2-1-3.1-.7-4.5zm-56.6 22.7c.9-.6 1.7-1.5 2.1-2.5.2-1 1.1-1.8 2.1-2 .7-.1 1.3-.2 2-.2.9 0 1.6-.4 2.5-.5.7 0 1.3 0 2 .1 1.3.1 2.7-.1 3.9-.7.9-.4 2.3.5 1.3 1-1.4.7-2.9 1.1-4.5 1.3-.8-.1-1.5 0-2.3.2-.7.2-1.5.4-2.3.4-1.4.1-1.7.2-2 1.1l-.6 1.5c-.7 1-1.8 1.5-3 1.5-1-.1-1.8-.8-1.2-1.2zm100.4-18.2c1.4 1.1 1.9 2.3 3.2 3.4.4.3.7.8.7 1.3 0 .4-.1.8.4 1l.4.1h.2c.5 0 .9.2 1.2.6l.1.1c.5.7-.8 1-1.6.7-1.3-.4-3.5-1.2-2.6-2.4s-.1-1.5-.6-2.4c-.5-.9-1.1-1.6-1.9-2.3-.2-.1.3-.3.5-.1zm20 6.2c.2.3 1.8.4 2.3.5.7.1 1.3.5 1.7 1 .3.7.9.7 1.8 1 .6.3 1.3.5 2 .4.3 0 .5 0 .8.1.5.1 1 .5 1.3.9.6.9 1.7.5 2.6 1.1.6.4 1 1 1.1 1.7.1.6 2.6 1.2 3.2 1.4.2.1.2.3-.1.3-.8-.1-1.6-.3-2.3-.7-1.2-.5-1.5-.4-2.5-1.2-.6-.6-1.6-.9-2.4-1.5-.2-.2-.4-.4-.5-.6-.6-.6-1.4-1-2.2-1-2-.4-4.4.3-4.8-1.5-.2-.9-2.7-.8-2.9-1.8.2-.4.8-.2.9-.1zm-47.5-16.4c1.5-.1 3-.1 4.6 0 1.8.1 3.1.7 4.8.9 3.6.4 5.4 3 8.5 3.9.1 0 .1.2 0 .2-1-.2-2-.6-2.9-1.1-1.6-.6-3.1-1-4.8-1.4-1.8-.6-2.8-1.5-4.9-1.8-1.7-.2-3.4-.1-5.1-.2-.4 0-.7-.5-.2-.5zM165.4 46.3c.6-.5 1.8-.6 2.6-.9 1.2-.5 2.5-.9 3.8-1.3 1-.3 1.9-.7 2.7-1.3.6-.3 1.1-.5 1.2-1 .1-.4.4-.6.7-.8 1.1-.8 4.1-.2 5.4-.1h.6c.1-.1.3-.1.4-.2.3-.1.5-.1.8 0 1.1-.2 2.2-.6 3.2-.7 1.5-.2 3.6-.4 4.3-1.4.2-.3.9 0 .8.3-.8 1.3-3.3 2.1-5.3 2.6-.9.2-1.9.3-2.9.3-.3.3-.7.6-1.1.8-.8.2-1.7.3-2.5.1-1.1-.1-1.1.4-1.9.8l-1.5.6c-.6.5-1.3.9-2.1 1.1-1.3.3-2.7.4-4 .8-.7.2-1.4.4-2.1.7-.5.2-1.6.2-2 .4-.4.4-1.6-.3-1.1-.8zm70.3-1.6c-.1-.7.1-1.4.6-2 .4-.4.9-.7 1.3-1.1 1.1-1.2.6-2.6 1.5-3.9 1.2-1.4 2.5-2.7 3.9-3.8.6-.6 1.1-1.3 1.6-2.1.6-.9 1-1.9 1.6-2.8 0-.1.2-.3.3-.6.3 0 .6.2.6.4.2 1.5-.7 2.9-.9 4.4-.1 1.1 1.2 2.1 1.9 3.1.2.2.3.5.4.7-.1-1.1-.3-2.3-.8-3.3-.2-.7 0-1.4.4-1.9 0-1.3.9-2.8 1.1-4 .1-.3.8-.1.7.2v.1c.1 0 .3.1.2.2-.2.4-.4.8-.5 1.3-.4 1.1-.4 2.3-.2 3.4.5 1.6 1.4 3 1.4 4.7 0 .7.2 1.4.2 2.1-.2.8-.5 1.6-.9 2.3-.7 1.8-2 3.4-2.6 5.2-.1.4-.9.2-1-.1 0-.8.1-1.6.3-2.4.1-1 .2-1.9.2-2.9.1-1.2-.4-2-1.6-2.9-.6-.5-1.2-1.1-1.7-1.7-.6.9-1.1 1.8-1.5 2.7-.2.4-.9.8-1.3 1.2-.6.5-1 1.1-1.6 1.7-.4.4-.8.8-1.1 1.2-.4.7-.3 1.5-.8 2.2-.5.8-1.1 1.6-1.8 2.3 0-1.3.1-2.6.1-3.9zm25.5-28.3c-.3-.4.3-.5.7-.3 1.5.7 4 2.2 3.3 3.5 1.3.4 2.5.8 2.6 2v.2l.1.1c.3.3.4.7.7 1 .7.5 1.4.7 2.2.8l.9.3c.5-.2 1-.2 1.5 0 .6.1 1.1.5 1.4 1.1v.1c.4.1.7.2 1 .3 1.7.6 1.4 1.6.9 2.6.6.5 1.1 1.1 1.5 1.8l.3.6c.7.2 1.4.4 2 .7.3.1.6.3.8.5 1.7.4 3 1.6 2 2.6.4.4.9.6 1.4.8.8.3 1.7.6 2.5 1 1 .3 1.9 1 2.5 1.9.2.3-.5.4-.7.2-1.4-1-3.1-1.9-4.8-2.4-1.4-.5-3.2-1.1-4-2-.2-.3-.4-.6-.4-1-.6 0-1.2 0-1.8-.1-1.8-.4-1.5-1.3-2-2.3-.4-.7-.9-1.3-1.6-1.7-.8-.3-1.6-.7-2.4-1.2-.5-.5-.5-1.4-1.1-1.8-.8-.4-1.6-.7-2.5-.8-.3-.1-.5-.2-.6-.4v-.2c0-.1.1-.2.2-.2-.2-.1-.4-.3-.6-.6-.2-.5-.5-1-.8-1.5-.1-.1-.3-.1-.4-.2-.8-.7-1.8-1.2-2.8-1.3-.7-.2-1.4-.8-.8-1.2s.3-.5 0-1c-.1-.8-.6-1.4-1.2-1.9zm-31.1 12.3c.8.2 1.7.3 2.5.3 1.3 0 2.6.3 3.8 1.1 2.2.7 4.5 0 5.8-1.9.3-.5 1-.6 1.3-1.1.5-1-.2-2-.4-3 0-.2-.8-.5-.9-.1-.1.9.2 2.3-1.3 2.7l-.2.1-.4-.3c-.4-.3-.9-.3-1.4-.2-.6.4-1.3.6-2 .7-.5 0-1 0-1.4.2-.2.1-.3.2-.4.3-.4 0-.8 0-1.2.1-1.3-.2-2.6-.1-3.9.2-.8.1-.5.7.1.9zm7 0h1.3c-.1.1-.3.1-.4.2-.4 0-.7 0-.9-.2zM83.8 50.2h5.7c-.4-.2-.5-.8.3-.7.4 0 .8 0 1.2-.1.2-.1.5-.1.8-.2-.3-.5.3-1 1.2-.9.8 0 1.5.3 2.1.8.1 0 .1.1.1.1.6-.1 1.1-.1 1.7-.2 2.2-.3 3.3-1 5.2-1.7 1.3-.4 2.7-.5 4-.3 1.8.1 3.8.2 5.6.2.3 0 .5.4.2.4-1.4.1-2.9.4-4.3.4-1 0-2-.1-2.9-.1-.8.1-1.5.3-2.2.6h.1c1.4-.3 2.7 1.3 1 1.7-.7.2-1.3.5-2 .8-1 .2-2 .4-3 .3-1.2-.1-2.4-.1-3.5.1-.5.1-1.1.1-1.6-.2l-.2-.1c-.5.1-1 0-1.5-.1s-.9-.3-1.2-.7h-.3c-2.1.1-4.1.3-6.2.2-.4.1-.7-.3-.3-.3zM164.2 18c1.2.3 2.1 0 3.1.6.9.5 1.8.9 2.8 1.1.4.1.8.4 1.2.5 1.1.2 2.1.8 2.9 1.6.4.4.4 1 .8 1.4.7.6 1.5 1.1 2.4 1.4.3.1.5.6-.1.5-1.4-.1-2.3-.9-3.6-1.3-1.1-.4-2.1-1.1-2.9-2-.3-.3-.5-.7-.5-1.1 0-.4-1.2-.4-1.7-.6-.6-.2-1.1-.4-1.6-.8-.9-.4-1.9-.8-2.9-1-.3 0-.3-.4.1-.3zm-40 12.1c3.4-1.3 6.7-2.7 9.9-4s7-2.1 10.7-3c1.8-.5 3.6-1.1 5.3-2 1.3-.8 2.8-1.2 4.3-1.4.6-.1 3.6 0 3.8-.3.5-.8 2.1-1 2.8-1.8.1-.1.5 0 .4.1-.2.7-.9 1.1-1.7 1.7-.4.3-.1.7-.3 1s-.5.4-.9.6c-1.4.6-2.9.9-4.4 1-2.2.1-4.4.5-6.6 1-3.8 1.1-7.9 1.8-11.4 3.2-3.6 1.7-7.4 3.2-11.2 4.5-.5.4-1.4-.3-.7-.6zm-13.5 8c.8-.4 1.7-.6 2.6-.8 1.1-.1 2.2-.2 3.2-.4.7-.7 1.8-.7 2.8-.8.1-.2.3-.3.7-.3 1.8-.1 3.7-.7 5.2 0 .2 0 .4-.1.6-.2 1.3-.5 1.8-1.4 3.2-1.8h.2c.3-.6.7-1.2 1.1-1.8.1-.2.7 0 .6.2-.2.6-1 2.3-.3 2.8.4.2.7.6.9 1.1.4 1.1-1.8 1-2.5 1.5-.6.3-1.2.5-1.9.6-.9.2-1.7.5-2.5.9-1.9.8-3.9 1.3-5.9 1.4-.6 0-1-.6-.5-.8 1.7-.7 3.9-1 5.4-1.9.6-.3 1.5-.7 2.1-1h-1.9c-.8.1-1.6.3-2.4.4-.6.2-1.2.3-1.8.3l-1.2.1c-.2.1-.4.2-.7.3-1 .1-2 .2-3.1.2-1.2.2-2.3.3-3.5.4-.3 0-.7-.3-.4-.4zm-48.2 6.3h5.7c-.4-.2-.5-.8.3-.7.4 0 .8 0 1.2-.1.2-.1.5-.1.8-.2-.3-.5.3-1 1.2-.9.8 0 1.5.3 2.1.8l.1.1c.6-.1 1.1-.1 1.7-.2 2.2-.3 3.3-1 5.1-1.7 1.3-.4 2.7-.5 4-.3 1.8.1 3.8.2 5.6.2.3 0 .5.4.2.4-1.4 0-2.9.4-4.3.4-1 0-2-.1-3-.1-.8.1-1.5.3-2.2.6 1.4-.3 2.7 1.3 1 1.7-.7.2-1.3.5-2 .8-1 .2-2 .4-3 .3-1.3.1-2.3-.2-3.5.1-.5.1-1 .1-1.5-.2l-.2-.1c-.5.1-1 0-1.5-.1s-.9-.3-1.2-.7l-.3-.1c-2.1.1-4.2.3-6.2.2-.3.2-.5-.2-.1-.2zm62.4 11.8c0 .5-.8 1-1.5 1.4-2.6 1.2-5.3 2.2-8.1 2.9-3.4 1-6.7 1.9-10.2 2.7-6.9 1.7-13.8 3.3-20.8 4.8-1.4.3-2.9.6-4.4.9v-1.1c6.8-1.1 13.4-2.7 20-4.6 8-2.3 15.9-4.8 24.2-6.8l.8-.2zm15.3 4.4c1.9.4 3.9.6 5.8.5 4.4-.1 9.4-.3 13.3-1.6 2-.7 3.9-1.6 5.7-2.7 1.9-1.2 4-2.3 6.1-3 3.2-.9 6.8-1 10.2-1.3-1.5.3-2.9.6-4.4.9-1.7.3-3.5.8-5.1 1.3-1.7.7-3.3 1.5-4.9 2.6-.1.1-.1.3.1.2.7-.1 1.4-.1 2.1 0-1.2.8-2.3 1.7-3.5 2.5-1.2.9-2.6 1.6-4.1 2-3 .8-6.4 0-9.5 0-3.6 0-7.4.6-11 .1-3-.4-5.2-1.8-8-2.4 2.6-.5 4.8.3 7.2.9zm31 .8c4.1.5 8-1.7 11.6-2.6.3-.1.7.2.4.3-.8.5-1.7.8-2.4 1.3-.8.5-1.7.8-2.7.9l-3.3.6c-1.2.1-2.4 0-3.6-.2-.2 0-.3-.3 0-.3z" opacity=".5" fill="#fff"/><path d="M303.9 115.1H0V16.2s33.8 1.1 46.1 3.9 41.8 9 60.7 16.8 67.9 44 197.1 49.3v28.9z" fill="#9fb700"/><path d="M112.1 146.9h263V0s-13.8 3.3-26 6.1-29.4 6.4-48.5 18.2c-17.4 10.8-130.2 91-188.1 91l-.4 31.6z" fill="#899e00"/><path d="M-2.4 87.5c13.8-.6 27.5-.3 41.2 0 15 .4 30 1.9 44.9 1.9 32 .1 64.2 4.6 95.9 8.2 13.7 1.5 28.2 3.2 41.4 7.3s25.2 10.6 38.1 15.4c6 2.2 11.8 4.9 17.3 8 13.4 7.3 28 11.4 41.5 18.2H-3.7l1.3-59z" fill="#c0c13c"/><path class="st7" d="M102.5 55.9h1.5v45.8h-1.5z"/><path class="st7" d="M97 63.3c-.6.4-1.1.9-1.4 1.6-.2.7.3 1.6 1 1.5-1.1.4-1.1.8-1.9 1.6-.8 1-.7 2.4.2 3.3-1.8 1.3-2.6 3.6-2 5.8-.7 1.5 0 3.3 1.5 4 .4.2.7.2 1.1.3l-.3 2c2.4 1.3 4.2 0 6.9.5 1 .2 2.8-.5 3.8 0 .8.4 1.7.7 2.6.9.3.1.7.1 1 0 .6-.3 1-1 .9-1.7-.1-.7-.4-1.3-.7-1.9.8.2 1.6-.2 2-.9.4-.7.3-1.6-.1-2.3-.3-.4-.5-.8-.6-1.2 0-.6.6-1.1.9-1.7.7-1.5-1.1-3-1-4.6.1-1 .9-1.9.8-2.9-.2-1.3-2-2.1-1.8-3.4.1-.3.2-.6.2-.8 0-.6-.7-1.1-1.3-1.3-1.7-.8-3.5-1.6-5.3-2.2-2.9-.9-3.3 1.2-6.5 3.4zm-25.8-7.4h1.5v45.8h-1.5z"/><path class="st7" d="M65.6 63.3c-.6.4-1.1.9-1.4 1.6-.2.7.3 1.6 1 1.5-1.1.4-1.1.8-1.9 1.6-.8 1-.7 2.4.2 3.3-1.8 1.3-2.6 3.6-2 5.8-.7 1.5 0 3.3 1.5 4 .4.2.7.2 1.1.3l-.3 2c2.4 1.3 4.3 0 6.9.5 1 .2 2.8-.5 3.8 0 .8.4 1.7.7 2.6.9.3.1.7.1 1 0 .6-.3 1-1 .9-1.7-.1-.7-.3-1.3-.7-1.9.8.2 1.6-.1 2.1-.9.4-.7.3-1.6-.1-2.3-.3-.4-.5-.8-.6-1.2 0-.6.6-1.1.9-1.7.7-1.5-1.1-3-1-4.6.1-1 .9-1.9.8-2.9-.2-1.3-2-2.1-1.8-3.4.1-.3.2-.6.2-.8 0-.6-.7-1.1-1.3-1.3-1.7-.8-3.5-1.6-5.3-2.2-3-.9-3.4 1.2-6.6 3.4z"/></g></g></g></svg>