<svg version="1.1" id="レイヤー_1" xmlns="http://www.w3.org/2000/svg" xmlns:xlink="http://www.w3.org/1999/xlink" x="0" y="0" viewBox="0 0 1280 178.8" xml:space="preserve"><style>.st5{fill:#819600}</style><g id="レイヤー_2_00000154401626531632029460000002127081192506171833_"><g id="therapy_list_all"><defs><path id="SVGID_1_" d="M0-201.2h1280v380H0z"/></defs><clipPath id="SVGID_00000150073366855313547750000011206009923811903159_"><use xlink:href="#SVGID_1_" overflow="visible"/></clipPath><g clip-path="url(#SVGID_00000150073366855313547750000011206009923811903159_)"><linearGradient id="SVGID_00000016789509479994037120000017567827548939348157_" gradientUnits="userSpaceOnUse" x1="701.075" y1="-19.08" x2="701.075" y2="-254.72" gradientTransform="matrix(1 0 0 -1 0 2.75)"><stop offset="0" stop-color="#b8d200"/><stop offset=".75" stop-color="#9fb700"/></linearGradient><path d="M1051.4 47.5l-29.6-5c-3.1-1.1-6.1-2.2-9.1-3.4-10.2-4-19.2-6.7-31.5-4.9-12.7 1.8-23.6 6.9-35 10.6-22.9 7.5-30.7 10.7-61.1 10.7-8.2-6.2-29.5-9.5-38.8-15.1-5.1-3-11.6-.1-18.3-1.7-5.3-1.3-8.8-.2-13.1 1.8-11.6 5.2-20.9 6-30.9 12.4-1.8 1.2-13.6-.4-15.4.7-19.5-5-27.3-9.6-47.2-14-10-2.2-20.3-2.4-30.4-.6-8.8 1.6-16.7 4.8-24.2 8-7.8 3.2-15.4 6.5-23.8 9.1-9.4 2.9-19.1 4-29.5 4.5-28.5 1.3-56.9-.2-84.9 4.4-12.6 2.1-21.4 6.7-30.1 12.5-6.6 4.4-13.6 9-22.9 11.1-13.2 2.9-24.5 11-38 11.9-12.4.8-23.4 5.1-35.9 6-7.8.6-16 6.9-24 7.8l-27.2 3.1v80.8h700.7V47.5zM497.5 82.2c0-.2 0-.3.2-.4l2.4-.9-2.6 1.3z" fill="url(#SVGID_00000016789509479994037120000017567827548939348157_)"/><path d="M1131.9 68c-4.8.3-9.6.2-14.4-.1-8.6-.4-17.1-1.3-25.6-2-7.3-.7-14.2-1.5-21.3-2.7-7.3-1.3-14.6-2.2-22-2.7-8.3-.5-16.4-.9-24.3-2.5-7.5-1.6-14.8-3.5-22.5-4.9-7.1-1.5-14.3-2.1-21.5-2-7.1.2-14.3 2-20.8 3.7-15.4 4.1-30.2 9.5-47.1 9.2-7-.1-14-.8-21-1.1 19.4-.9 39.3-1.2 56.5-8 9.7-3.8 19-8.9 30-11.2 10.6-2.2 18.7-.3 27.8 2.6 20.5 6.7 43.6 10.2 66.1 13.9 9.1 1.5 18.1 3.2 27.5 4 8.3.8 16.6 1.3 25 1.6 5.4.2 10.9.2 16.4.1-1.9 1.6-5.9 2-8.8 2.1zm-411-19.4c-4.8 1-2.8 4.8-1.3 6.9 2.5 3.3 5.2 6.3 8.3 9-3.6-.1-7.1-.9-10.3-2.5-8.7-3.8-17.5-8.7-28.7-5.6-5.8 1.6-10.8 4.2-16.5 6-7.2 2.3-15.8 2.9-23.8 3.3-9.9.4-19.9.3-29.8-.4 3.2-.1 6.4-.2 9.5-.3 9.1-.4 17.6-1.4 25.8-3.9 7.3-2.2 14-5.1 20.8-8 6.6-2.8 13.5-5.6 21.2-7 8.8-1.6 17.9-1.5 26.6.5 4.5 1 8.9 2.2 13.2 3.4-4.4-.9-10.4-2.4-15-1.4zm282.2 133.8c-5.1-.5-10.4.1-14.7-2.1-2.9-1.5-5.3-3.3-8.6-4.5-1.5-.5-3.1-1.1-4.5-1.8-1.5-.7-2.7-1.9-3.5-3.5-.6-1.1-1.9-2.9-3.8-3.3-.9-.2-1.9-.3-2.8-.4-2.3-.2-4.4-1.1-6.2-2.4-2.8-2.2-3.9-4.8-6.3-7.1-1.7-1.4-3.5-2.6-5.5-3.6 2.9 1 6.4 1.9 8.2 3.7 1.4 1.4 5.6 6.2 7.6 6 3-.2 6.8-.2 9.4.8s3.5 2.8 4.7 4.5c.8.2 1.6.5 2.4.9 1.9 1 2.4 2.4 3.7 3.7.4.4.7.9 1 1.4.2.1.3.3.4.4.4.4.7 1 .7 1.5 1.2 1.6 2.9 2.6 6 3.5 2.8.8 6.7.9 9.7 1.3 1.7.3 3.4.7 5 1.4-1-.1-2-.3-2.9-.4zM877.9 80.3c-5.2-2.9-9.5-6.4-14.2-9.5-5.2-3.3-10.6-6.3-16.2-8.9-5.9-2.8-9.7-6.8-13.3-10.8-1.5-1.8-3.1-3.6-4.9-5.2-.5-.5-1-.9-1.5-1.3 4.9 1.7 9.5 3.9 13.9 6.7 11.8 7.1 21.7 15.2 32.2 23 6.7 4.8 13.7 9.2 21 13-5.8-1.8-11.5-4.1-17-7zm-108.8-.1c6.9-3 10.5-8 16.9-11.2 6-3 13.3-5 18.9-8.5 2.6-1.6 4-3.6 5.9-5.5 1.2-1.3 2.7-2.4 4.3-3.2 2.5-1.1 2 1.5 1.6 2.3-.1.2.2.3.5.3.2 2.6 1.5 5.2 1.6 7.7.1 2.4-.8 4.7-1.5 7.1-.9 2.8-1.8 5.6-2.8 8.5-.4 1-.7 2-1.1 3-.7 1.5-2.6-.4-3.4-1.1-1.2-.9-2.5-1-4.4-.9-3.6.2-7.2.6-10.8.8-5.7.2-11.9-.6-17.3.8-9.2 2.4-14.5 8.6-25.2 8.7 3.3-4.2 10.7-6.1 16.8-8.8zm52.6 28.3c-.1-.7-.2-1.4-.1-2.1.3-2.1 2.9-4.3 4.5-6.1.1-.4.3-.8.7-1.1.5-2.2-1.7-6 2.8-6.8 1.2-.2 2.6.8 2.5 1.5-.3 1-1.1 2-1.4 3-.1.6 0 1.3.3 1.9.5.3.8.7 1.1 1.2.8 1.8 1.1 3.8.7 5.8 1.5 1.9 3.2 3.2 2.1 5.6-.4.9.1 2.1.1 3.1 0 .6.6 1.2.3 1.9-.1.1-.1.3-.2.4.5.5 1.1 1 1.7 1.4 2 1.7 4.2 3.4 5.1 5.3.1.1.2.1.3.2.3.1.6.3.8.4 1.7.2 4 .1 5.5.3 2 .4 4.2 1.9 4.2 3.2 0 .8 0 1.5-.2 2.2-.3 1.5.3 3 1.5 3.8l2.1 1.2c3.9 2.5 7.9 4.8 12 6.8 1.5.7.1 2.1-1.6 1.4-.7-.3-1.5-.6-2.2-1-1.9-.8-4-1.4-5.7-2.2-1.1-.5-4.6-3-6-2.8-3.5.6-6.3-2-7.3-3.6-1.5-2.3-6.3-2.2-8.4-4.4-.6-.6-.9-1.4-.8-2.3-.1-1.6-1.6-2.8-2.6-4.2-.1-.1-.2-.3-.1-.5-2.9-1.7-6.6-3-8.2-5.4-.3-.5-.5-1-.5-1.5-1.8-.5-3-2.2-2.9-4 .2-1.1-.3-1.7-.1-2.6zM844 87.1c.2-1.4 1.3-2.2 0-3.4-.6-.3-.8-1.1-.5-1.7 0-.1.1-.1.1-.2.3-.6 1.7-.1 1.9.3.9 1.7 4.7 1.9 4.1 4.1-.5 1.9.3 3.5 1.3 5.3.9 1.5 1 3 1.5 4.5.5 1.2.3 2.5-.4 3.5-.7 1.1-1.9 1.3-1.2 2.5.4.6.5 1.3.3 2-.1.5-.1 1 .1 1.5 1 .6 2 1.1 3.2 1.3 3.4.8 6.3 1.6 8.6 3.4-.4-.3 2.8.2 2.8.2 2.3.5 4.5 1.1 6.8 1.8 3.6 1 7.1 2.4 10.5 4 .7.4.6 1.4-.6 1.2-2.8-.4-5.4-.8-8.2-1s-5.7.1-8.5-.2c-5.3-.4-8.3-1.4-10.8-4.4-1-1.3-3-2.3-4.6-3.5-.5.1-1.1.1-1.7 0-3.9-1.1-4.5-3.1-4-5.6.1-.6-.2-.2-.7-1.4s.3-1.9 1.7-2.7c5.1-3.1-2.3-7.8-1.7-11.5zm-145.2 58.1c2.5-2.3 4.5-3.6 5.4-6.5.8-2.3 1.7-4.3 5.5-5.2 1.7-.3 3.4-.4 5.1-.4 2.3-.1 4.2-1 6.4-1.3 1.7-.1 3.4 0 5.1.2 3.4.2 6.8-.4 9.9-1.7 2.4-1.1 5.8 1.3 3.3 2.5-3.6 1.8-7.6 2.8-11.6 3.2-2.2.1-3.9-.3-5.9.4-1.9.6-3.9.9-5.8 1-3.5.2-4.4.6-5.1 2.8-.4 1.3-.9 2.6-1.6 3.8-1.2 2.2-4.1 3.7-7.7 4-2.3.2-4.4-1.5-3-2.8zm257.7-46.6c3.7 2.7 4.9 5.9 8.3 8.7.9.7 2 2.2 1.8 3.2.1 1-.2 2.1 1.1 2.7l1.1.3.5.1c1.2 0 2.3.6 3.1 1.5.1.1.1.2.2.3 1.3 1.8-2 2.7-4.1 1.9-3.2-1.2-9-3.2-6.7-6.2 2.1-2.7-.3-3.8-1.6-6.1-1.3-2.2-2.9-4.2-4.9-5.9-.8-.4.5-1 1.2-.5zm51.3 16c.6.8 4.7 1 5.9 1.3 1.8.3 4 1.6 4.5 2.7.8 1.9 2.3 1.7 4.7 2.7 1.6.8 3.3 1.2 5 1.2.7 0 1.4.1 2 .2 1.3.4 2.5 1.2 3.3 2.3 1.6 2.2 4.3 1.2 6.6 2.7 1.6.9 2.6 2.5 2.9 4.2.3 1.5 6.6 3 8.3 3.7.4.2.6.8-.2.7-2.1-.3-4.1-.9-5.9-1.8-3.1-1.4-4-1-6.3-3.1-1.7-1.5-4.2-2.4-6-3.8-.6-.4-1-1-1.4-1.6-1.1-1.6-3.3-2.1-5.7-2.6-5.2-1.1-11.3.8-12.2-3.9-.4-2.3-6.9-2-7.3-4.8-.1-.9 1.4-.6 1.8-.1zm-122-42.2c3.9-.3 7.8-.3 11.7 0 4.5.3 8 1.9 12.4 2.4 9.2 1 13.7 7.8 21.9 10 .4.1.4.5-.1.4-2.6-.6-5.1-1.5-7.5-2.8-3.5-1.7-8.3-2.2-12.2-3.5-4.5-1.5-7.1-3.9-12.5-4.6-4.3-.6-8.8-.2-13.2-.5-.9-.1-1.8-1.3-.5-1.4zm-286.3 71.7c1.5-1.3 4.7-1.4 6.7-2.3 3.1-1.3 6.5-2.4 9.8-3.4 2.5-.8 4.8-1.9 7-3.3 1.5-.9 2.8-1.2 3-2.5.2-1 .9-1.5 1.9-2.1 2.8-2 10.6-.6 14-.2.5.1 1.1.1 1.6.1.4-.2.7-.4 1.1-.5.7-.2 1.4-.1 2 .1 2.7-.5 5.5-1.5 8.2-1.8 3.9-.4 9.1-1.1 11-3.6.6-.8 2.4.1 2 .8-2 3.4-8.5 5.4-13.6 6.7-2.4.6-4.9.8-7.3.7-.8.8-1.8 1.5-2.8 2-2.1.6-4.3.7-6.5.2-2.8-.4-3 1.1-5 2-1.2.5-2.5 1-3.8 1.4-1.6 1.3-3.4 2.3-5.4 2.8-3.3.8-6.9 1-10.3 2-1.8.5-3.6 1.1-5.4 1.7-1.2.4-4.2.5-5.1 1.1-1.4 1.1-4.4-.8-3.1-1.9zm180.1-4.3c0-1.7 0-3.7 1.5-5.2 1-1 2.3-1.8 3.2-2.8 2.8-3 1.5-6.7 3.7-9.9 2.5-3.6 6.5-6.5 9.9-9.8 1.6-1.6 2.9-3.4 4-5.4 1.4-2.4 2.7-4.9 4-7.3.1-.2.4-.8.8-1.5.7.1 1.4.5 1.5 1 .5 3.9-1.9 7.5-2.4 11.3-.4 2.7 3.1 5.4 4.8 7.9.4.6.7 1.2 1 1.8-.2-2.9-.8-5.8-1.9-8.6-.7-2 .1-3.4 1-4.9-.1-3.4 2.2-7.2 2.9-10.3.2-.8 2-.2 1.9.4v.3c.4.1.7.4.6.6-.5 1.1-.9 2.2-1.4 3.3-.7 3-1.4 6-.6 8.8 1.2 4 3.7 7.8 3.7 12 0 1.8.6 3.6.5 5.4-.1 2.1-1.5 4-2.3 6-1.7 4.6-5 8.8-6.7 13.3-.4.9-2.3.4-2.5-.4-.3-2.1.5-4 .8-6.1.3-2.5.5-4.9.6-7.4.2-3.1-1-5-4-7.4-1.6-1.3-3-2.7-4.4-4.2-1.5 2.2-2.7 4.5-3.8 6.9-.6 1.1-2.2 2.1-3.2 3-1.5 1.4-2.6 2.9-4.1 4.3-1.1 1-2.1 2.1-2.8 3.3-1 1.8-.8 3.9-2 5.6-1.4 2.1-2.9 4.1-4.6 6 .6-3.3.2-6.9.3-10zm65.6-72.6c-.8-.9.7-1.4 1.8-.8 3.8 1.9 10.3 5.7 8.5 9 3.4 1 6.5 2.1 6.7 5 0 .2 0 .4-.1.6l.2.2c.8.8 1.1 1.7 1.8 2.5 1.1 1.2 3.8 1.7 5.7 2.2.8.2 1.5.4 2.3.7 1.2-.4 2.5-.5 3.7-.1 1.5.4 2.9 1.3 3.7 2.7 0 .1.1.2.1.2.9.2 1.9.5 2.7.8 4.2 1.6 3.5 4.1 2.4 6.7 1.4 1.3 2.7 2.9 3.8 4.5.4.5.6 1 .7 1.6 1.8.4 3.5 1 5.2 1.7.8.4 1.5.9 2.1 1.4 4.4 1.1 7.8 4.2 5 6.8 1 .9 2.2 1.7 3.5 2.2 2.2.8 4.3 1.6 6.4 2.5 2.8 1.2 5.5 2.8 6.5 4.9.4.9-1.2.9-1.9.4-3.5-2.8-7.4-4.3-12.2-6.1-3.5-1.4-8.2-2.8-10.4-5.1-.6-.7-1-1.6-1.1-2.5v-.1c-1.6.1-3.1-.1-4.7-.3-4.5-1.1-3.7-3.4-5-5.9-.7-1.3-2.3-3.6-4-4.4-2-.9-4.7-1.7-6.1-3s-1.4-3.6-2.8-4.6c-1.7-1.2-4-1.6-6.3-2-.7-.2-1.4-.6-1.5-1.1l-.1-.4c0-.3.2-.5.6-.6-.6-.4-1.1-.8-1.5-1.4-.8-1.3-1-2.6-2-3.8-.4-.1-.7-.3-1-.6-1.7-2-4.1-2.4-7.2-3.3-1.8-.5-3.6-2-2-3.1s.8-1.3.1-2.5c-.8-2-2.2-3.3-3.6-4.9zm-80 31.6c2.1.6 4.3.9 6.5.7 4.5-.1 6.4 1.1 9.6 2.8 3.6 1.8 7.7.9 10.7-1 2-1.3 3.4-2.2 4.3-3.9.7-1.3 2.6-1.5 3.3-2.8 1.2-2.5-.6-5.3-1.1-7.8-.1-.6-2.1-1.2-2.2-.3-.3 2.3.4 5.9-3.4 6.8-.2 0-.3.1-.5.2-.3-.3-.6-.5-.9-.7-1.1-.7-2.3-.8-3.5-.5-1.5.6-3.2 1.7-5.1 1.7-1.3-.1-2.5.1-3.7.6-.4.2-.8.5-1.1.9l-.1.1c-1.1-.1-2.2 0-3.2.3-3.2-.3-7.3-.3-10 .5-1.8.4-.9 2 .4 2.4zm17.9 0c1-.1 2-.1 3 0h.3c-.3.1-.7.3-1 .4-.8.2-1.7 0-2.3-.4zm-392.9 55.1c4.9-.1 9.8-.1 14.7 0-1-.6-1.2-2.1.8-1.9 1 0 2.1-.1 3.1-.3.6-.2 1.3-.3 1.9-.4-.8-1.2.8-2.5 3-2.4 2 .1 3.9.8 5.4 2l.3.3c1.4-.2 2.9-.3 4.4-.5 5.6-.7 8.4-2.6 13.2-4.3 3.4-1.1 6.6-1.1 10.4-.8 4.7.3 9.7.4 14.4.5.8 0 1.4 1 .4 1-3.7.1-7.4 1-11 1-2.5 0-5-.2-7.5-.2-2 .1-3.9.7-5.7 1.6h.2c3.7-.7 7 3.4 2.6 4.3-1.8.4-3.5 1.5-5.2 2-2.4.8-5.2.8-7.8.9-3.3.1-5.9-.6-9.1.4-1.3.4-2.8.2-4-.4-.2-.1-.3-.2-.5-.3-1.3.1-2.5.1-3.8-.1-1.2-.2-2.3-.9-3.1-1.8l-.7-.1c-5.3.2-10.6.7-15.9.6-.9 0-1.6-1.1-.5-1.1zm206.2-82.4c3 .7 5.3.1 8 1.6 2.3 1.3 4.7 2.2 7.3 2.8 1 .2 2.1 1.1 3 1.2 2.9.5 5.5 2 7.3 4.2.9 1 1 2.5 2 3.5 1.9 1.5 4 2.7 6.2 3.6.8.4 1.2 1.5-.3 1.4-3.7-.3-5.8-2.4-9.2-3.3-2.9-.9-5.5-2.7-7.4-5-.8-.7-1.2-1.7-1.3-2.8.1-1-3.1-1.1-4.3-1.5-1.5-.5-3-1.2-4.3-2.1-2-1.4-5-1.7-7.4-2.6-.8-.3-.7-1.3.4-1zm-102.6 30.9c8.7-3.2 17.1-6.8 25.5-10.3 8.4-3.5 18.1-5.4 27.3-7.6 4.7-1.2 9.3-2.9 13.6-5.1 3.7-1.9 6.1-3.1 11-3.5 1.4-.1 9.2 0 9.7-.8 1.2-2.1 5.4-2.7 7.2-4.5.3-.4 1.2 0 1.1.3-.5 1.9-2.4 2.9-4.3 4.4-1 .8-.4 1.8-.7 2.7s-1.2 1.1-2.2 1.5c-3.6 1.5-7.5 2.4-11.4 2.6-5.9.6-11.5 1-17 2.6-9.7 2.8-20.3 4.5-29.2 8.3-9.5 4-18.2 8.2-28.6 11.4-1.6.5-3.8-1.3-2-2zm-34.6 20.7c2.1-.9 4.4-1.6 6.6-2.1 1.2-.2 7.8-.7 8.3-1.2 1.7-1.7 4.6-1.8 7.3-2.1.2-.5.7-.8 1.8-.8 4.6-.1 9.4-1.8 13.2 0 .5-.1 1.1-.3 1.6-.4 3.3-1.1 4.7-3.7 8.2-4.6.1 0 .3-.1.4-.1.9-1.5 1.9-3.1 2.7-4.6.3-.6 1.7 0 1.6.5-.4 1.6-2.7 5.9-.7 7.2 1.1.6 1.9 1.6 2.3 2.8 1 2.8-4.6 2.7-6.4 4-1.5.9-3.1 1.4-4.8 1.5-2.8.4-4.2 1.5-6.5 2.4-4.5 1.8-9.7 3.5-15.2 3.5-1.6 0-2.7-1.5-1.3-2.1 4.2-1.9 9.9-2.5 13.8-4.8 1.5-.9 3.8-1.7 5.4-2.7-1.7.1-3.3.2-5 .1-2 .4-4.1.7-6.2.9-1.4.6-3.1.5-4.7.7-1 .1-2.1.2-3.1.3-.5.3-1.1.6-1.7.8-2 .6-5.5.3-7.8.6-3.1.4-5.9.9-9.1 1.1-.7.1-1.5-.6-.7-.9zM335.5 139c4.9-.1 9.8-.1 14.7 0-1-.6-1.2-2.1.7-1.9 1 0 2.1-.1 3.1-.4.6-.2 1.3-.3 2-.4-.8-1.2.8-2.5 3-2.4 2 .1 3.9.8 5.4 2l.3.3c1.4-.2 2.9-.3 4.4-.5 5.6-.7 8.4-2.7 13.2-4.3 3.4-1.2 6.6-1.1 10.4-.8 4.7.3 9.7.4 14.4.5.8 0 1.4 1 .4 1-3.7.1-7.4 1-11 1-2.5 0-5-.2-7.5-.2-2 .1-3.9.7-5.7 1.6h.2c3.7-.7 7 3.4 2.6 4.3-1.8.4-3.5 1.5-5.2 2-2.6.6-5.2.9-7.8.9-3.3.1-5.9-.6-9.1.4-1.3.4-2.8.2-4-.4-.2-.1-.3-.2-.5-.3-1.2.1-2.5.1-3.7-.1-1.2-.2-2.3-.9-3.1-1.8l-.7-.1c-5.3.2-10.6.7-15.9.6-1.1.1-1.7-.9-.6-1zm160 30.6c-.1 1.4-2.1 2.7-3.9 3.6-6.2 3.1-13.7 5.3-20.9 7.4-8.6 2.5-17.2 4.8-26.1 7-17.6 4.3-35.4 8.5-53.4 12.3-3.7.8-7.5 1.6-11.2 2.3v-2.9c17.7-2.7 35-7.2 51.3-11.8 20.6-5.8 40.8-12.3 62-17.4l2.2-.5zm39.3 11.2c4.9 1 9.9 1.4 14.9 1.2 11.2-.2 24.1-.7 34.2-4 5-1.8 9.9-4 14.4-6.8 4.8-2.8 9.7-5.9 15.7-7.7 8.2-2.4 17.3-2.5 26.2-3.3-3.7.8-7.4 1.6-11.2 2.4-4.5.8-8.9 2-13.2 3.5-4.4 1.7-8.6 3.9-12.5 6.5-.3.2-.2.7.4.6 1.8-.2 3.6-.2 5.4 0-3 2.2-5.8 4.4-9 6.5-3.2 2.3-6.7 4.1-10.5 5.2-7.8 2-16.3-.1-24.4-.1-9.3-.1-19 1.4-28.1.2-7.7-1-13.4-4.6-20.6-6.2 6.5-1.6 12.2.4 18.3 2zm79.5 2c10.4 1.2 20.5-4.4 29.8-6.5.7-.2 1.8.5 1.1.9-1.9 1.2-4.3 2-6.2 3.3-2.1 1.3-4.4 2.1-6.8 2.3-2.9.4-5.6 1-8.5 1.4s-6.5-.2-9.2-.5c-.7-.2-1.1-1.1-.2-.9z" opacity=".5" fill="#fff"/><path d="M1037.2 178.8H0V56.4s115.5 3.8 157.3 13.3 155.8 22.8 220.4 49.4 216.7 23.7 657.5 41.9v25.6" fill="#9fb700"/><path d="M503.1 178.8H1280V0s-47 11.4-88.9 20.9-98.8 17.6-163.4 28.8C958.9 61.8 700.8 179 503.1 179l1.9 7.6" fill="#899e00"/><path class="st5" d="M350 41.8h5.2v156.4H350z"/><path class="st5" d="M331 67.3c-2 1.4-4.2 3-4.9 5.4s1 5.5 3.5 5.2c-3.9 1.2-3.7 2.5-6.5 5.5s-2.1 8.2.7 11.1c-6.5 4.1-8.9 14.1-7 19.7-3.1 6.1 2.2 14.6 9.1 14.4l-1.2 6.7c8.1 4.6 14.5-.2 23.6 1.6 3.4.7 9.7-1.7 12.8-.1 2.8 1.4 5.9 2.4 9 2.9 1.1.3 2.3.2 3.5-.1 2.2-.8 3.3-3.4 3.2-5.7-.4-2.3-1.2-4.6-2.5-6.5 2.7.8 5.6-.5 7-3 1.3-2.5 1.1-5.5-.3-7.9-.8-1.3-1.9-2.6-2-4.2 0-2.2 2.1-3.7 3-5.6 2.3-5-3.8-10.3-3.4-15.8.3-3.4 3.1-6.5 2.5-9.9-.7-4.5-6.8-7.3-6-11.7.3-.9.5-1.9.7-2.8 0-2.2-2.3-3.6-4.3-4.5-4.1-1.8-14.5-6.9-18-7.5-10.2-1.9-11.6 5-22.5 12.8zm-88.1-25.5h5.2v156.4h-5.2z"/><path class="st5" d="M224 67.3c-2 1.4-4.2 3-4.9 5.4s1 5.5 3.5 5.2c-3.9 1.2-3.7 2.5-6.5 5.5s-2.1 8.2.7 11.1c-6.6 4.1-8.9 14.1-7 19.7-3.1 6.1 2.2 14.6 9.1 14.4l-1.2 6.7c8.1 4.6 14.5-.2 23.6 1.6 3.4.7 9.7-1.7 12.8-.1 2.8 1.4 5.9 2.4 9 2.9 1.1.3 2.3.2 3.5-.1 2.2-.8 3.3-3.4 3.2-5.7-.4-2.3-1.2-4.6-2.5-6.5 2.7.7 5.6-.5 7-3 1.3-2.5 1.1-5.5-.3-7.9-.8-1.3-1.9-2.6-2-4.2 0-2.2 2.1-3.7 3-5.6 2.3-5-3.8-10.3-3.4-15.8.3-3.4 3.1-6.5 2.5-9.9-.7-4.5-6.8-7.3-6-11.7.3-.9.5-1.9.7-2.8 0-2.2-2.3-3.6-4.3-4.5-4.1-1.8-14.5-6.9-17.9-7.5-10.3-1.9-11.7 5-22.6 12.8z"/></g></g></g></svg>