<svg xmlns="http://www.w3.org/2000/svg" viewBox="0 0 35 35"><g data-name="レイヤー 2"><g data-name="therapy list all"><path d="M35 17.48a17.46 17.46 0 01-16 17.43 8.23 8.23 0 01-1.49.09A17.5 17.5 0 1135 17.48z" fill="#323333"/><path d="M19.51 13.82a2 2 0 011.58-.55 9 9 0 012.39.33l.68-3.67a12.88 12.88 0 00-4.33-.63 7.13 7.13 0 00-3.61.77 4.1 4.1 0 00-1.95 2 9.49 9.49 0 00-.54 3.69v1.45h-2.89v4.2h2.89V34.6a17.53 17.53 0 003.79.4 8.23 8.23 0 001.48-.09v-13.5h3.84v-4.2H19v-1.36a2.84 2.84 0 01.51-2.03z" fill="#fff"/></g></g></svg>