<svg xmlns="http://www.w3.org/2000/svg" viewBox="0 0 35 28.44"><g data-name="レイヤー 2"><path d="M31.42 7.08v.93c0 9.49-7.23 20.43-20.43 20.43A20.25 20.25 0 010 25.21a14 14 0 001.71.11 14.45 14.45 0 008.92-3.08 7.19 7.19 0 01-6.71-5 7.1 7.1 0 003.24-.12 7.18 7.18 0 01-5.76-7V10a7.31 7.31 0 003.26.9 7.18 7.18 0 01-2.22-9.59 20.35 20.35 0 0014.8 7.5 7.18 7.18 0 0112.23-6.55A14.12 14.12 0 0034 .52a7.22 7.22 0 01-3.15 4A14.41 14.41 0 0035 3.36a14.72 14.72 0 01-3.58 3.72z" fill="#323333" data-name="therapy list all"/></g></svg>