<svg xmlns="http://www.w3.org/2000/svg" viewBox="0 0 35 35"><defs><style>.cls-1{fill:#323333;}.cls-2{fill:#fff;}</style></defs><g id="レイヤー_2" data-name="レイヤー 2"><g id="therapy_list_all" data-name="therapy list all"><path class="cls-1" d="M35,17.48A17.46,17.46,0,0,1,19,34.91a8.23,8.23,0,0,1-1.49.09A17.5,17.5,0,1,1,35,17.48Z"/><path class="cls-2" d="M19.51,13.82a2,2,0,0,1,1.58-.55,9,9,0,0,1,2.39.33l.68-3.67a12.88,12.88,0,0,0-4.33-.63,7.13,7.13,0,0,0-3.61.77,4.1,4.1,0,0,0-1.95,2,9.49,9.49,0,0,0-.54,3.69v1.45H10.84v4.2h2.89V34.6a17.53,17.53,0,0,0,3.79.4A8.23,8.23,0,0,0,19,34.91V21.41h3.84v-4.2H19V15.85A2.84,2.84,0,0,1,19.51,13.82Z"/></g></g></svg>