<svg xmlns="http://www.w3.org/2000/svg" viewBox="0 0 35 28.44"><defs><style>.cls-1{fill:#323333;}</style></defs><g id="レイヤー_2" data-name="レイヤー 2"><g id="therapy_list_all" data-name="therapy list all"><path id="Logo" class="cls-1" d="M31.42,7.08c0,.31,0,.62,0,.93,0,9.49-7.23,20.43-20.43,20.43h0A20.25,20.25,0,0,1,0,25.21a14,14,0,0,0,1.71.11,14.45,14.45,0,0,0,8.92-3.08,7.19,7.19,0,0,1-6.71-5,7.1,7.1,0,0,0,3.24-.12,7.18,7.18,0,0,1-5.76-7V10a7.31,7.31,0,0,0,3.26.9A7.18,7.18,0,0,1,2.44,1.31a20.35,20.35,0,0,0,14.8,7.5A7.18,7.18,0,0,1,29.47,2.26,14.12,14.12,0,0,0,34,.52a7.22,7.22,0,0,1-3.15,4A14.41,14.41,0,0,0,35,3.36,14.72,14.72,0,0,1,31.42,7.08Z"/></g></g></svg>