<?xml version="1.0" encoding="utf-8"?>
<!-- Generator: Adobe Illustrator 25.4.1, SVG Export Plug-In . SVG Version: 6.00 Build 0)  -->
<svg version="1.1" id="レイヤー_1" xmlns="http://www.w3.org/2000/svg" xmlns:xlink="http://www.w3.org/1999/xlink" x="0px"
	 y="0px" viewBox="0 0 1280 178.8" style="enable-background:new 0 0 1280 178.8;" xml:space="preserve">
<style type="text/css">
	.st0{clip-path:url(#SVGID_00000044176621369310577640000018208548328053479097_);}
	.st1{fill:url(#SVGID_00000167377060954943991640000017932258905397259692_);}
	.st2{opacity:0.5;fill:#FFFFFF;enable-background:new    ;}
	.st3{fill:#9FB700;}
	.st4{fill:#899E00;}
	.st5{fill:#819600;}
</style>
<g id="レイヤー_2_00000154401626531632029460000002127081192506171833_">
	<g id="therapy_list_all">
		<g>
			<defs>
				<rect id="SVGID_1_" y="-201.2" width="1280" height="380"/>
			</defs>
			<clipPath id="SVGID_00000150073366855313547750000011206009923811903159_">
				<use xlink:href="#SVGID_1_"  style="overflow:visible;"/>
			</clipPath>
			<g style="clip-path:url(#SVGID_00000150073366855313547750000011206009923811903159_);">
				
					<linearGradient id="SVGID_00000016789509479994037120000017567827548939348157_" gradientUnits="userSpaceOnUse" x1="701.075" y1="-19.08" x2="701.075" y2="-254.72" gradientTransform="matrix(1 0 0 -1 0 2.75)">
					<stop  offset="0" style="stop-color:#B8D200"/>
					<stop  offset="0.75" style="stop-color:#9FB700"/>
				</linearGradient>
				<path style="fill:url(#SVGID_00000016789509479994037120000017567827548939348157_);" d="M1051.4,47.5l-29.6-5
					c-3.1-1.1-6.1-2.2-9.1-3.4c-10.2-4-19.2-6.7-31.5-4.9c-12.7,1.8-23.6,6.9-35,10.6c-22.9,7.5-30.7,10.7-61.1,10.7
					c-8.2-6.2-29.5-9.5-38.8-15.1c-5.1-3-11.6-0.1-18.3-1.7c-5.3-1.3-8.8-0.2-13.1,1.8c-11.6,5.2-20.9,6-30.9,12.4
					c-1.8,1.2-13.6-0.4-15.4,0.7c-19.5-5-27.3-9.6-47.2-14c-10-2.2-20.3-2.4-30.4-0.6c-8.8,1.6-16.7,4.8-24.2,8
					c-7.8,3.2-15.4,6.5-23.8,9.1c-9.4,2.9-19.1,4-29.5,4.5c-28.5,1.3-56.9-0.2-84.9,4.4c-12.6,2.1-21.4,6.7-30.1,12.5
					c-6.6,4.4-13.6,9-22.9,11.1c-13.2,2.9-24.5,11-38,11.9c-12.4,0.8-23.4,5.1-35.9,6c-7.8,0.6-16,6.9-24,7.8l-27.2,3.1v80.8h700.7
					V47.5z M497.5,82.2c0-0.2,0-0.3,0.2-0.4c0.8-0.3,1.6-0.6,2.4-0.9L497.5,82.2z"/>
				<path class="st2" d="M1131.9,68c-4.8,0.3-9.6,0.2-14.4-0.1c-8.6-0.4-17.1-1.3-25.6-2c-7.3-0.7-14.2-1.5-21.3-2.7
					c-7.3-1.3-14.6-2.2-22-2.7c-8.3-0.5-16.4-0.9-24.3-2.5c-7.5-1.6-14.8-3.5-22.5-4.9c-7.1-1.5-14.3-2.1-21.5-2
					c-7.1,0.2-14.3,2-20.8,3.7c-15.4,4.1-30.2,9.5-47.1,9.2c-7-0.1-14-0.8-21-1.1c19.4-0.9,39.3-1.2,56.5-8c9.7-3.8,19-8.9,30-11.2
					c10.6-2.2,18.7-0.3,27.8,2.6c20.5,6.7,43.6,10.2,66.1,13.9c9.1,1.5,18.1,3.2,27.5,4c8.3,0.8,16.6,1.3,25,1.6
					c5.4,0.2,10.9,0.2,16.4,0.1C1138.8,67.5,1134.8,67.9,1131.9,68z"/>
				<path class="st2" d="M720.9,48.6c-4.8,1-2.8,4.8-1.3,6.9c2.5,3.3,5.2,6.3,8.3,9c-3.6-0.1-7.1-0.9-10.3-2.5
					c-8.7-3.8-17.5-8.7-28.7-5.6c-5.8,1.6-10.8,4.2-16.5,6c-7.2,2.3-15.8,2.9-23.8,3.3c-9.9,0.4-19.9,0.3-29.8-0.4
					c3.2-0.1,6.4-0.2,9.5-0.3c9.1-0.4,17.6-1.4,25.8-3.9c7.3-2.2,14-5.1,20.8-8c6.6-2.8,13.5-5.6,21.2-7c8.8-1.6,17.9-1.5,26.6,0.5
					c4.5,1,8.9,2.2,13.2,3.4C731.5,49.1,725.5,47.6,720.9,48.6z"/>
				<path class="st2" d="M1003.1,182.4c-5.1-0.5-10.4,0.1-14.7-2.1c-2.9-1.5-5.3-3.3-8.6-4.5c-1.5-0.5-3.1-1.1-4.5-1.8
					c-1.5-0.7-2.7-1.9-3.5-3.5c-0.6-1.1-1.9-2.9-3.8-3.3c-0.9-0.2-1.9-0.3-2.8-0.4c-2.3-0.2-4.4-1.1-6.2-2.4
					c-2.8-2.2-3.9-4.8-6.3-7.1c-1.7-1.4-3.5-2.6-5.5-3.6c2.9,1,6.4,1.9,8.2,3.7c1.4,1.4,5.6,6.2,7.6,6c3-0.2,6.8-0.2,9.4,0.8
					s3.5,2.8,4.7,4.5c0.8,0.2,1.6,0.5,2.4,0.9c1.9,1,2.4,2.4,3.7,3.7c0.4,0.4,0.7,0.9,1,1.4c0.2,0.1,0.3,0.3,0.4,0.4
					c0.4,0.4,0.7,1,0.7,1.5c1.2,1.6,2.9,2.6,6,3.5c2.8,0.8,6.7,0.9,9.7,1.3c1.7,0.3,3.4,0.7,5,1.4
					C1005,182.7,1004,182.5,1003.1,182.4z"/>
				<path class="st2" d="M877.9,80.3c-5.2-2.9-9.5-6.4-14.2-9.5c-5.2-3.3-10.6-6.3-16.2-8.9c-5.9-2.8-9.7-6.8-13.3-10.8
					c-1.5-1.8-3.1-3.6-4.9-5.2c-0.5-0.5-1-0.9-1.5-1.3c4.9,1.7,9.5,3.9,13.9,6.7c11.8,7.1,21.7,15.2,32.2,23c6.7,4.8,13.7,9.2,21,13
					C889.1,85.5,883.4,83.2,877.9,80.3z"/>
				<path class="st2" d="M769.1,80.2c6.9-3,10.5-8,16.9-11.2c6-3,13.3-5,18.9-8.5c2.6-1.6,4-3.6,5.9-5.5c1.2-1.3,2.7-2.4,4.3-3.2
					c2.5-1.1,2,1.5,1.6,2.3c-0.1,0.2,0.2,0.3,0.5,0.3c0.2,2.6,1.5,5.2,1.6,7.7c0.1,2.4-0.8,4.7-1.5,7.1c-0.9,2.8-1.8,5.6-2.8,8.5
					c-0.4,1-0.7,2-1.1,3c-0.7,1.5-2.6-0.4-3.4-1.1c-1.2-0.9-2.5-1-4.4-0.9c-3.6,0.2-7.2,0.6-10.8,0.8c-5.7,0.2-11.9-0.6-17.3,0.8
					c-9.2,2.4-14.5,8.6-25.2,8.7C755.6,84.8,763,82.9,769.1,80.2z"/>
				<path class="st2" d="M821.7,108.5c-0.1-0.7-0.2-1.4-0.1-2.1c0.3-2.1,2.9-4.3,4.5-6.1c0.1-0.4,0.3-0.8,0.7-1.1
					c0.5-2.2-1.7-6,2.8-6.8c1.2-0.2,2.6,0.8,2.5,1.5c-0.3,1-1.1,2-1.4,3c-0.1,0.6,0,1.3,0.3,1.9c0.5,0.3,0.8,0.7,1.1,1.2
					c0.8,1.8,1.1,3.8,0.7,5.8c1.5,1.9,3.2,3.2,2.1,5.6c-0.4,0.9,0.1,2.1,0.1,3.1c0,0.6,0.6,1.2,0.3,1.9c-0.1,0.1-0.1,0.3-0.2,0.4
					c0.5,0.5,1.1,1,1.7,1.4c2,1.7,4.2,3.4,5.1,5.3c0.1,0.1,0.2,0.1,0.3,0.2c0.3,0.1,0.6,0.3,0.8,0.4c1.7,0.2,4,0.1,5.5,0.3
					c2,0.4,4.2,1.9,4.2,3.2c0,0.8,0,1.5-0.2,2.2c-0.3,1.5,0.3,3,1.5,3.8c0.7,0.4,1.4,0.8,2.1,1.2c3.9,2.5,7.9,4.8,12,6.8
					c1.5,0.7,0.1,2.1-1.6,1.4c-0.7-0.3-1.5-0.6-2.2-1c-1.9-0.8-4-1.4-5.7-2.2c-1.1-0.5-4.6-3-6-2.8c-3.5,0.6-6.3-2-7.3-3.6
					c-1.5-2.3-6.3-2.2-8.4-4.4c-0.6-0.6-0.9-1.4-0.8-2.3c-0.1-1.6-1.6-2.8-2.6-4.2c-0.1-0.1-0.2-0.3-0.1-0.5c-2.9-1.7-6.6-3-8.2-5.4
					c-0.3-0.5-0.5-1-0.5-1.5c-1.8-0.5-3-2.2-2.9-4C822,110,821.5,109.4,821.7,108.5z"/>
				<path class="st2" d="M844,87.1c0.2-1.4,1.3-2.2,0-3.4c-0.6-0.3-0.8-1.1-0.5-1.7c0-0.1,0.1-0.1,0.1-0.2c0.3-0.6,1.7-0.1,1.9,0.3
					c0.9,1.7,4.7,1.9,4.1,4.1c-0.5,1.9,0.3,3.5,1.3,5.3c0.9,1.5,1,3,1.5,4.5c0.5,1.2,0.3,2.5-0.4,3.5c-0.7,1.1-1.9,1.3-1.2,2.5
					c0.4,0.6,0.5,1.3,0.3,2c-0.1,0.5-0.1,1,0.1,1.5c1,0.6,2,1.1,3.2,1.3c3.4,0.8,6.3,1.6,8.6,3.4c-0.4-0.3,2.8,0.2,2.8,0.2
					c2.3,0.5,4.5,1.1,6.8,1.8c3.6,1,7.1,2.4,10.5,4c0.7,0.4,0.6,1.4-0.6,1.2c-2.8-0.4-5.4-0.8-8.2-1s-5.7,0.1-8.5-0.2
					c-5.3-0.4-8.3-1.4-10.8-4.4c-1-1.3-3-2.3-4.6-3.5c-0.5,0.1-1.1,0.1-1.7,0c-3.9-1.1-4.5-3.1-4-5.6c0.1-0.6-0.2-0.2-0.7-1.4
					s0.3-1.9,1.7-2.7C850.8,95.5,843.4,90.8,844,87.1z"/>
				<path class="st2" d="M698.8,145.2c2.5-2.3,4.5-3.6,5.4-6.5c0.8-2.3,1.7-4.3,5.5-5.2c1.7-0.3,3.4-0.4,5.1-0.4
					c2.3-0.1,4.2-1,6.4-1.3c1.7-0.1,3.4,0,5.1,0.2c3.4,0.2,6.8-0.4,9.9-1.7c2.4-1.1,5.8,1.3,3.3,2.5c-3.6,1.8-7.6,2.8-11.6,3.2
					c-2.2,0.1-3.9-0.3-5.9,0.4c-1.9,0.6-3.9,0.9-5.8,1c-3.5,0.2-4.4,0.6-5.1,2.8c-0.4,1.3-0.9,2.6-1.6,3.8c-1.2,2.2-4.1,3.7-7.7,4
					C699.5,148.2,697.4,146.5,698.8,145.2z"/>
				<path class="st2" d="M956.5,98.6c3.7,2.7,4.9,5.9,8.3,8.7c0.9,0.7,2,2.2,1.8,3.2c0.1,1-0.2,2.1,1.1,2.7l1.1,0.3l0.5,0.1
					c1.2,0,2.3,0.6,3.1,1.5c0.1,0.1,0.1,0.2,0.2,0.3c1.3,1.8-2,2.7-4.1,1.9c-3.2-1.2-9-3.2-6.7-6.2c2.1-2.7-0.3-3.8-1.6-6.1
					c-1.3-2.2-2.9-4.2-4.9-5.9C954.5,98.7,955.8,98.1,956.5,98.6z"/>
				<path class="st2" d="M1007.8,114.6c0.6,0.8,4.7,1,5.9,1.3c1.8,0.3,4,1.6,4.5,2.7c0.8,1.9,2.3,1.7,4.7,2.7c1.6,0.8,3.3,1.2,5,1.2
					c0.7,0,1.4,0.1,2,0.2c1.3,0.4,2.5,1.2,3.3,2.3c1.6,2.2,4.3,1.2,6.6,2.7c1.6,0.9,2.6,2.5,2.9,4.2c0.3,1.5,6.6,3,8.3,3.7
					c0.4,0.2,0.6,0.8-0.2,0.7c-2.1-0.3-4.1-0.9-5.9-1.8c-3.1-1.4-4-1-6.3-3.1c-1.7-1.5-4.2-2.4-6-3.8c-0.6-0.4-1-1-1.4-1.6
					c-1.1-1.6-3.3-2.1-5.7-2.6c-5.2-1.1-11.3,0.8-12.2-3.9c-0.4-2.3-6.9-2-7.3-4.8C1005.9,113.8,1007.4,114.1,1007.8,114.6z"/>
				<path class="st2" d="M885.8,72.4c3.9-0.3,7.8-0.3,11.7,0c4.5,0.3,8,1.9,12.4,2.4c9.2,1,13.7,7.8,21.9,10
					c0.4,0.1,0.4,0.5-0.1,0.4c-2.6-0.6-5.1-1.5-7.5-2.8c-3.5-1.7-8.3-2.2-12.2-3.5c-4.5-1.5-7.1-3.9-12.5-4.6
					c-4.3-0.6-8.8-0.2-13.2-0.5C885.4,73.7,884.5,72.5,885.8,72.4z"/>
				<path class="st2" d="M599.5,144.1c1.5-1.3,4.7-1.4,6.7-2.3c3.1-1.3,6.5-2.4,9.8-3.4c2.5-0.8,4.8-1.9,7-3.3
					c1.5-0.9,2.8-1.2,3-2.5c0.2-1,0.9-1.5,1.9-2.1c2.8-2,10.6-0.6,14-0.2c0.5,0.1,1.1,0.1,1.6,0.1c0.4-0.2,0.7-0.4,1.1-0.5
					c0.7-0.2,1.4-0.1,2,0.1c2.7-0.5,5.5-1.5,8.2-1.8c3.9-0.4,9.1-1.1,11-3.6c0.6-0.8,2.4,0.1,2,0.8c-2,3.4-8.5,5.4-13.6,6.7
					c-2.4,0.6-4.9,0.8-7.3,0.7c-0.8,0.8-1.8,1.5-2.8,2c-2.1,0.6-4.3,0.7-6.5,0.2c-2.8-0.4-3,1.1-5,2c-1.2,0.5-2.5,1-3.8,1.4
					c-1.6,1.3-3.4,2.3-5.4,2.8c-3.3,0.8-6.9,1-10.3,2c-1.8,0.5-3.6,1.1-5.4,1.7c-1.2,0.4-4.2,0.5-5.1,1.1
					C601.2,147.1,598.2,145.2,599.5,144.1z"/>
				<path class="st2" d="M779.6,139.8c0-1.7,0-3.7,1.5-5.2c1-1,2.3-1.8,3.2-2.8c2.8-3,1.5-6.7,3.7-9.9c2.5-3.6,6.5-6.5,9.9-9.8
					c1.6-1.6,2.9-3.4,4-5.4c1.4-2.4,2.7-4.9,4-7.3c0.1-0.2,0.4-0.8,0.8-1.5c0.7,0.1,1.4,0.5,1.5,1c0.5,3.9-1.9,7.5-2.4,11.3
					c-0.4,2.7,3.1,5.4,4.8,7.9c0.4,0.6,0.7,1.2,1,1.8c-0.2-2.9-0.8-5.8-1.9-8.6c-0.7-2,0.1-3.4,1-4.9c-0.1-3.4,2.2-7.2,2.9-10.3
					c0.2-0.8,2-0.2,1.9,0.4v0.3c0.4,0.1,0.7,0.4,0.6,0.6c-0.5,1.1-0.9,2.2-1.4,3.3c-0.7,3-1.4,6-0.6,8.8c1.2,4,3.7,7.8,3.7,12
					c0,1.8,0.6,3.6,0.5,5.4c-0.1,2.1-1.5,4-2.3,6c-1.7,4.6-5,8.8-6.7,13.3c-0.4,0.9-2.3,0.4-2.5-0.4c-0.3-2.1,0.5-4,0.8-6.1
					c0.3-2.5,0.5-4.9,0.6-7.4c0.2-3.1-1-5-4-7.4c-1.6-1.3-3-2.7-4.4-4.2c-1.5,2.2-2.7,4.5-3.8,6.9c-0.6,1.1-2.2,2.1-3.2,3
					c-1.5,1.4-2.6,2.9-4.1,4.3c-1.1,1-2.1,2.1-2.8,3.3c-1,1.8-0.8,3.9-2,5.6c-1.4,2.1-2.9,4.1-4.6,6
					C779.9,146.5,779.5,142.9,779.6,139.8z"/>
				<path class="st2" d="M845.2,67.2c-0.8-0.9,0.7-1.4,1.8-0.8c3.8,1.9,10.3,5.7,8.5,9c3.4,1,6.5,2.1,6.7,5c0,0.2,0,0.4-0.1,0.6
					l0.2,0.2c0.8,0.8,1.1,1.7,1.8,2.5c1.1,1.2,3.8,1.7,5.7,2.2c0.8,0.2,1.5,0.4,2.3,0.7c1.2-0.4,2.5-0.5,3.7-0.1
					c1.5,0.4,2.9,1.3,3.7,2.7c0,0.1,0.1,0.2,0.1,0.2c0.9,0.2,1.9,0.5,2.7,0.8c4.2,1.6,3.5,4.1,2.4,6.7c1.4,1.3,2.7,2.9,3.8,4.5
					c0.4,0.5,0.6,1,0.7,1.6c1.8,0.4,3.5,1,5.2,1.7c0.8,0.4,1.5,0.9,2.1,1.4c4.4,1.1,7.8,4.2,5,6.8c1,0.9,2.2,1.7,3.5,2.2
					c2.2,0.8,4.3,1.6,6.4,2.5c2.8,1.2,5.5,2.8,6.5,4.9c0.4,0.9-1.2,0.9-1.9,0.4c-3.5-2.8-7.4-4.3-12.2-6.1
					c-3.5-1.4-8.2-2.8-10.4-5.1c-0.6-0.7-1-1.6-1.1-2.5c0,0,0-0.1,0-0.1c-1.6,0.1-3.1-0.1-4.7-0.3c-4.5-1.1-3.7-3.4-5-5.9
					c-0.7-1.3-2.3-3.6-4-4.4c-2-0.9-4.7-1.7-6.1-3s-1.4-3.6-2.8-4.6c-1.7-1.2-4-1.6-6.3-2c-0.7-0.2-1.4-0.6-1.5-1.1l-0.1-0.4
					c0-0.3,0.2-0.5,0.6-0.6c-0.6-0.4-1.1-0.8-1.5-1.4c-0.8-1.3-1-2.6-2-3.8c-0.4-0.1-0.7-0.3-1-0.6c-1.7-2-4.1-2.4-7.2-3.3
					c-1.8-0.5-3.6-2-2-3.1s0.8-1.3,0.1-2.5C848,70.1,846.6,68.8,845.2,67.2z"/>
				<path class="st2" d="M765.2,98.8c2.1,0.6,4.3,0.9,6.5,0.7c4.5-0.1,6.4,1.1,9.6,2.8c3.6,1.8,7.7,0.9,10.7-1
					c2-1.3,3.4-2.2,4.3-3.9c0.7-1.3,2.6-1.5,3.3-2.8c1.2-2.5-0.6-5.3-1.1-7.8c-0.1-0.6-2.1-1.2-2.2-0.3c-0.3,2.3,0.4,5.9-3.4,6.8
					c-0.2,0-0.3,0.1-0.5,0.2c-0.3-0.3-0.6-0.5-0.9-0.7c-1.1-0.7-2.3-0.8-3.5-0.5c-1.5,0.6-3.2,1.7-5.1,1.7c-1.3-0.1-2.5,0.1-3.7,0.6
					c-0.4,0.2-0.8,0.5-1.1,0.9l-0.1,0.1c-1.1-0.1-2.2,0-3.2,0.3c-3.2-0.3-7.3-0.3-10,0.5C763,96.8,763.9,98.4,765.2,98.8z
					 M783.1,98.8c1-0.1,2-0.1,3,0h0.3c-0.3,0.1-0.7,0.3-1,0.4C784.6,99.4,783.7,99.2,783.1,98.8L783.1,98.8z"/>
				<path class="st2" d="M390.2,153.9c4.9-0.1,9.8-0.1,14.7,0c-1-0.6-1.2-2.1,0.8-1.9c1,0,2.1-0.1,3.1-0.3c0.6-0.2,1.3-0.3,1.9-0.4
					c-0.8-1.2,0.8-2.5,3-2.4c2,0.1,3.9,0.8,5.4,2c0.1,0.1,0.2,0.2,0.3,0.3c1.4-0.2,2.9-0.3,4.4-0.5c5.6-0.7,8.4-2.6,13.2-4.3
					c3.4-1.1,6.6-1.1,10.4-0.8c4.7,0.3,9.7,0.4,14.4,0.5c0.8,0,1.4,1,0.4,1c-3.7,0.1-7.4,1-11,1c-2.5,0-5-0.2-7.5-0.2
					c-2,0.1-3.9,0.7-5.7,1.6h0.2c3.7-0.7,7,3.4,2.6,4.3c-1.8,0.4-3.5,1.5-5.2,2c-2.4,0.8-5.2,0.8-7.8,0.9c-3.3,0.1-5.9-0.6-9.1,0.4
					c-1.3,0.4-2.8,0.2-4-0.4c-0.2-0.1-0.3-0.2-0.5-0.3c-1.3,0.1-2.5,0.1-3.8-0.1c-1.2-0.2-2.3-0.9-3.1-1.8l-0.7-0.1
					c-5.3,0.2-10.6,0.7-15.9,0.6C389.8,155,389.1,153.9,390.2,153.9z"/>
				<path class="st2" d="M596.4,71.5c3,0.7,5.3,0.1,8,1.6c2.3,1.3,4.7,2.2,7.3,2.8c1,0.2,2.1,1.1,3,1.2c2.9,0.5,5.5,2,7.3,4.2
					c0.9,1,1,2.5,2,3.5c1.9,1.5,4,2.7,6.2,3.6c0.8,0.4,1.2,1.5-0.3,1.4c-3.7-0.3-5.8-2.4-9.2-3.3c-2.9-0.9-5.5-2.7-7.4-5
					c-0.8-0.7-1.2-1.7-1.3-2.8c0.1-1-3.1-1.1-4.3-1.5c-1.5-0.5-3-1.2-4.3-2.1c-2-1.4-5-1.7-7.4-2.6
					C595.2,72.2,595.3,71.2,596.4,71.5z"/>
				<path class="st2" d="M493.8,102.4c8.7-3.2,17.1-6.8,25.5-10.3c8.4-3.5,18.1-5.4,27.3-7.6c4.7-1.2,9.3-2.9,13.6-5.1
					c3.7-1.9,6.1-3.1,11-3.5c1.4-0.1,9.2,0,9.7-0.8c1.2-2.1,5.4-2.7,7.2-4.5c0.3-0.4,1.2,0,1.1,0.3c-0.5,1.9-2.4,2.9-4.3,4.4
					c-1,0.8-0.4,1.8-0.7,2.7s-1.2,1.1-2.2,1.5c-3.6,1.5-7.5,2.4-11.4,2.6c-5.9,0.6-11.5,1-17,2.6c-9.7,2.8-20.3,4.5-29.2,8.3
					c-9.5,4-18.2,8.2-28.6,11.4C494.2,104.9,492,103.1,493.8,102.4z"/>
				<path class="st2" d="M459.2,123.1c2.1-0.9,4.4-1.6,6.6-2.1c1.2-0.2,7.8-0.7,8.3-1.2c1.7-1.7,4.6-1.8,7.3-2.1
					c0.2-0.5,0.7-0.8,1.8-0.8c4.6-0.1,9.4-1.8,13.2,0c0.5-0.1,1.1-0.3,1.6-0.4c3.3-1.1,4.7-3.7,8.2-4.6c0.1,0,0.3-0.1,0.4-0.1
					c0.9-1.5,1.9-3.1,2.7-4.6c0.3-0.6,1.7,0,1.6,0.5c-0.4,1.6-2.7,5.9-0.7,7.2c1.1,0.6,1.9,1.6,2.3,2.8c1,2.8-4.6,2.7-6.4,4
					c-1.5,0.9-3.1,1.4-4.8,1.5c-2.8,0.4-4.2,1.5-6.5,2.4c-4.5,1.8-9.7,3.5-15.2,3.5c-1.6,0-2.7-1.5-1.3-2.1
					c4.2-1.9,9.9-2.5,13.8-4.8c1.5-0.9,3.8-1.7,5.4-2.7c-1.7,0.1-3.3,0.2-5,0.1c-2,0.4-4.1,0.7-6.2,0.9c-1.4,0.6-3.1,0.5-4.7,0.7
					c-1,0.1-2.1,0.2-3.1,0.3c-0.5,0.3-1.1,0.6-1.7,0.8c-2,0.6-5.5,0.3-7.8,0.6c-3.1,0.4-5.9,0.9-9.1,1.1
					C459.2,124.1,458.4,123.4,459.2,123.1z"/>
				<path class="st2" d="M335.5,139c4.9-0.1,9.8-0.1,14.7,0c-1-0.6-1.2-2.1,0.7-1.9c1,0,2.1-0.1,3.1-0.4c0.6-0.2,1.3-0.3,2-0.4
					c-0.8-1.2,0.8-2.5,3-2.4c2,0.1,3.9,0.8,5.4,2c0.1,0.1,0.2,0.2,0.3,0.3c1.4-0.2,2.9-0.3,4.4-0.5c5.6-0.7,8.4-2.7,13.2-4.3
					c3.4-1.2,6.6-1.1,10.4-0.8c4.7,0.3,9.7,0.4,14.4,0.5c0.8,0,1.4,1,0.4,1c-3.7,0.1-7.4,1-11,1c-2.5,0-5-0.2-7.5-0.2
					c-2,0.1-3.9,0.7-5.7,1.6h0.2c3.7-0.7,7,3.4,2.6,4.3c-1.8,0.4-3.5,1.5-5.2,2c-2.6,0.6-5.2,0.9-7.8,0.9c-3.3,0.1-5.9-0.6-9.1,0.4
					c-1.3,0.4-2.8,0.2-4-0.4c-0.2-0.1-0.3-0.2-0.5-0.3c-1.2,0.1-2.5,0.1-3.7-0.1c-1.2-0.2-2.3-0.9-3.1-1.8l-0.7-0.1
					c-5.3,0.2-10.6,0.7-15.9,0.6C335,140.1,334.4,139.1,335.5,139z"/>
				<path class="st2" d="M495.5,169.6c-0.1,1.4-2.1,2.7-3.9,3.6c-6.2,3.1-13.7,5.3-20.9,7.4c-8.6,2.5-17.2,4.8-26.1,7
					c-17.6,4.3-35.4,8.5-53.4,12.3c-3.7,0.8-7.5,1.6-11.2,2.3v-2.9c17.7-2.7,35-7.2,51.3-11.8c20.6-5.8,40.8-12.3,62-17.4
					L495.5,169.6z"/>
				<path class="st2" d="M534.8,180.8c4.9,1,9.9,1.4,14.9,1.2c11.2-0.2,24.1-0.7,34.2-4c5-1.8,9.9-4,14.4-6.8
					c4.8-2.8,9.7-5.9,15.7-7.7c8.2-2.4,17.3-2.5,26.2-3.3c-3.7,0.8-7.4,1.6-11.2,2.4c-4.5,0.8-8.9,2-13.2,3.5
					c-4.4,1.7-8.6,3.9-12.5,6.5c-0.3,0.2-0.2,0.7,0.4,0.6c1.8-0.2,3.6-0.2,5.4,0c-3,2.2-5.8,4.4-9,6.5c-3.2,2.3-6.7,4.1-10.5,5.2
					c-7.8,2-16.3-0.1-24.4-0.1c-9.3-0.1-19,1.4-28.1,0.2c-7.7-1-13.4-4.6-20.6-6.2C523,177.2,528.7,179.2,534.8,180.8z"/>
				<path class="st2" d="M614.3,182.8c10.4,1.2,20.5-4.4,29.8-6.5c0.7-0.2,1.8,0.5,1.1,0.9c-1.9,1.2-4.3,2-6.2,3.3
					c-2.1,1.3-4.4,2.1-6.8,2.3c-2.9,0.4-5.6,1-8.5,1.4s-6.5-0.2-9.2-0.5C613.8,183.5,613.4,182.6,614.3,182.8z"/>
				<path class="st3" d="M1037.2,178.8H0V56.4c0,0,115.5,3.8,157.3,13.3s155.8,22.8,220.4,49.4s216.7,23.7,657.5,41.9v25.6"/>
				<path class="st4" d="M503.1,178.8H1280V0c0,0-47,11.4-88.9,20.9s-98.8,17.6-163.4,28.8C958.9,61.8,700.8,179,503.1,179l1.9,7.6"
					/>
				<rect x="350" y="41.8" class="st5" width="5.2" height="156.4"/>
				<path class="st5" d="M331,67.3c-2,1.4-4.2,3-4.9,5.4s1,5.5,3.5,5.2c-3.9,1.2-3.7,2.5-6.5,5.5s-2.1,8.2,0.7,11.1
					c-6.5,4.1-8.9,14.1-7,19.7c-3.1,6.1,2.2,14.6,9.1,14.4l-1.2,6.7c8.1,4.6,14.5-0.2,23.6,1.6c3.4,0.7,9.7-1.7,12.8-0.1
					c2.8,1.4,5.9,2.4,9,2.9c1.1,0.3,2.3,0.2,3.5-0.1c2.2-0.8,3.3-3.4,3.2-5.7c-0.4-2.3-1.2-4.6-2.5-6.5c2.7,0.8,5.6-0.5,7-3
					c1.3-2.5,1.1-5.5-0.3-7.9c-0.8-1.3-1.9-2.6-2-4.2c0-2.2,2.1-3.7,3-5.6c2.3-5-3.8-10.3-3.4-15.8c0.3-3.4,3.1-6.5,2.5-9.9
					c-0.7-4.5-6.8-7.3-6-11.7c0.3-0.9,0.5-1.9,0.7-2.8c0-2.2-2.3-3.6-4.3-4.5c-4.1-1.8-14.5-6.9-18-7.5
					C343.3,52.6,341.9,59.5,331,67.3z"/>
				<rect x="242.9" y="41.8" class="st5" width="5.2" height="156.4"/>
				<path class="st5" d="M224,67.3c-2,1.4-4.2,3-4.9,5.4s1,5.5,3.5,5.2c-3.9,1.2-3.7,2.5-6.5,5.5s-2.1,8.2,0.7,11.1
					c-6.6,4.1-8.9,14.1-7,19.7c-3.1,6.1,2.2,14.6,9.1,14.4l-1.2,6.7c8.1,4.6,14.5-0.2,23.6,1.6c3.4,0.7,9.7-1.7,12.8-0.1
					c2.8,1.4,5.9,2.4,9,2.9c1.1,0.3,2.3,0.2,3.5-0.1c2.2-0.8,3.3-3.4,3.2-5.7c-0.4-2.3-1.2-4.6-2.5-6.5c2.7,0.7,5.6-0.5,7-3
					c1.3-2.5,1.1-5.5-0.3-7.9c-0.8-1.3-1.9-2.6-2-4.2c0-2.2,2.1-3.7,3-5.6c2.3-5-3.8-10.3-3.4-15.8c0.3-3.4,3.1-6.5,2.5-9.9
					c-0.7-4.5-6.8-7.3-6-11.7c0.3-0.9,0.5-1.9,0.7-2.8c0-2.2-2.3-3.6-4.3-4.5c-4.1-1.8-14.5-6.9-17.9-7.5
					C236.3,52.6,234.9,59.5,224,67.3z"/>
			</g>
		</g>
	</g>
</g>
</svg>
