<?xml version="1.0" encoding="utf-8"?>
<!-- Generator: Adobe Illustrator 25.4.1, SVG Export Plug-In . SVG Version: 6.00 Build 0)  -->
<svg version="1.1" id="レイヤー_1" xmlns="http://www.w3.org/2000/svg" xmlns:xlink="http://www.w3.org/1999/xlink" x="0px"
	 y="0px" viewBox="0 0 375 136.7" style="enable-background:new 0 0 375 136.7;" xml:space="preserve">
<style type="text/css">
	.st0{opacity:0.8;}
	.st1{clip-path:url(#SVGID_00000132800284788125664270000008189341512366011521_);}
	.st2{fill:url(#SVGID_00000160906687519179785720000000073856011611959946_);}
	.st3{opacity:0.5;fill:#FFFFFF;enable-background:new    ;}
	.st4{fill:#9FB700;}
	.st5{fill:#899E00;}
	.st6{fill:#C0C13C;}
	.st7{fill:#819600;}
</style>
<g id="レイヤー_2_00000038405921497240603870000013197009969320116139_">
	<g id="therapy_list_all">
		<g class="st0">
			<g>
				<defs>
					<rect id="SVGID_1_" y="-14.8" width="375" height="151.3"/>
				</defs>
				<clipPath id="SVGID_00000001660790376403916970000013694014909469906846_">
					<use xlink:href="#SVGID_1_"  style="overflow:visible;"/>
				</clipPath>
				<g style="clip-path:url(#SVGID_00000001660790376403916970000013694014909469906846_);">
					
						<linearGradient id="SVGID_00000179627334651950190500000009881099021941258672_" gradientUnits="userSpaceOnUse" x1="201.345" y1="140.26" x2="201.345" y2="-65.01" gradientTransform="matrix(1 0 0 -1 3.7 133.24)">
						<stop  offset="0" style="stop-color:#B8D200"/>
						<stop  offset="0.75" style="stop-color:#9FB700"/>
					</linearGradient>
					<path style="fill:url(#SVGID_00000179627334651950190500000009881099021941258672_);" d="M341.6,8.7l-11.5-2
						c-1.2-0.4-2.4-0.9-3.5-1.3c-4-1.6-7.5-2.6-12.3-1.9c-5,0.7-9.2,2.7-13.6,4.1c-8.9,2.9-12,4.2-23.8,4.2
						c-3.2-2.4-11.5-3.7-15.1-5.9c-2-1.2-4.5,0-7.1-0.6c-1.7-0.4-3.6-0.2-5.1,0.7c-4.5,2-8.1,2.3-12,4.8c-0.7,0.5-5.3-0.2-6,0.3
						c-7.6-2-10.7-3.7-18.4-5.5c-3.9-0.9-7.9-0.9-11.9-0.2c-3.3,0.7-6.4,1.7-9.5,3.1c-3,1.2-6,2.5-9.3,3.5
						c-3.8,1.1-7.6,1.7-11.5,1.8c-11.1,0.5-22.2-0.1-33.1,1.7c-4.2,0.7-8.2,2.4-11.7,4.9c-2.7,2-5.7,3.5-8.9,4.3
						c-5.1,1.2-9.6,4.3-14.8,4.6c-4.8,0.3-9.2,2-14,2.3c-3.1,0.2-6.2,2.7-9.4,3.1l-10.6,1.2v110.7h273.2V8.7z M125.7,22.2
						c0-0.1,0-0.1,0.1-0.1c0,0,0,0,0,0c0.3-0.1,0.6-0.2,0.9-0.3L125.7,22.2z"/>
					<path class="st3" d="M373.1,16.7c-1.9,0.1-3.8,0.1-5.6,0c-3.4-0.2-6.7-0.5-10-0.8c-2.8-0.3-5.5-0.6-8.3-1.1
						c-2.8-0.5-5.7-0.8-8.6-1c-3.2-0.1-6.3-0.4-9.5-1c-2.9-0.6-5.8-1.4-8.8-1.9c-2.8-0.6-5.6-0.8-8.4-0.8c-2.8,0.2-5.5,0.7-8.1,1.5
						c-6,1.6-11.8,3.7-18.4,3.6c-2.8-0.1-5.5-0.3-8.2-0.4c7.6-0.4,15.3-0.5,22-3.1c3.8-1.5,7.4-3.5,11.7-4.4c4.1-0.9,7.3-0.1,10.8,1
						c8,2.6,17,4,25.8,5.4c3.6,0.6,7,1.2,10.7,1.6c3.2,0.3,6.5,0.5,9.8,0.6c2.1,0.1,4.3,0.1,6.4,0C375.4,16.4,374.3,16.7,373.1,16.7
						z"/>
					<path class="st3" d="M212.8,9.1c-1.9,0.4-1.1,1.9-0.5,2.7c1,1.3,2,2.5,3.2,3.5c-1.4,0-2.8-0.4-4-1c-3.4-1.5-6.8-3.4-11.2-2.2
						c-2.3,0.6-4.2,1.6-6.4,2.3c-3,0.8-6.1,1.2-9.2,1.3c-3.9,0.2-7.8,0.1-11.6-0.1c1.2,0,2.5-0.1,3.7-0.1c3.4-0.1,6.8-0.6,10.1-1.5
						c2.8-0.9,5.5-1.9,8.1-3.1c2.7-1.2,5.4-2.1,8.3-2.7c3.4-0.6,7-0.6,10.4,0.2c1.8,0.4,3.4,0.9,5.1,1.3
						C216.9,9.3,214.6,8.7,212.8,9.1z"/>
					<path class="st3" d="M322.8,61.2c-2-0.2-4,0-5.7-0.8c-1.1-0.7-2.2-1.2-3.3-1.8c-0.6-0.2-1.2-0.4-1.8-0.7
						c-0.6-0.3-1.1-0.8-1.4-1.3c-0.3-0.6-0.8-1.1-1.5-1.3c-0.4-0.1-0.7-0.1-1.1-0.1c-0.9-0.1-1.7-0.4-2.4-0.9
						c-1.1-0.9-1.5-1.9-2.5-2.8c-0.7-0.6-1.4-1-2.1-1.4c1.2,0.3,2.2,0.8,3.2,1.5c0.5,0.5,2.2,2.4,3,2.3c1.2-0.1,2.5,0,3.7,0.3
						c0.8,0.3,1.4,1,1.8,1.7c0.3,0.1,0.6,0.2,0.9,0.3c0.7,0.4,0.9,0.9,1.4,1.4c0.1,0.2,0.3,0.4,0.4,0.6l0.2,0.2
						c0.2,0.2,0.3,0.4,0.3,0.6c0.6,0.7,1.4,1.2,2.3,1.4c1.1,0.3,2.6,0.3,3.8,0.5c0.7,0.1,1.3,0.3,1.9,0.5
						C323.6,61.3,323.2,61.3,322.8,61.2z"/>
					<path class="st3" d="M274,21.5c-2-1.1-3.7-2.5-5.5-3.7c-2-1.3-4.1-2.5-6.3-3.5c-2-1-3.8-2.4-5.2-4.2c-0.6-0.7-1.2-1.4-1.9-2
						c-0.2-0.2-0.4-0.3-0.6-0.5c1.9,0.7,3.7,1.5,5.4,2.6c4.6,2.8,8.5,5.9,12.5,9c2.6,1.9,5.3,3.6,8.2,5.1
						C278.4,23.5,276.1,22.6,274,21.5z"/>
					<path class="st3" d="M231.6,21.4c2.7-1.2,4.1-3.1,6.6-4.4c2.4-1.2,5.2-2,7.4-3.3c0.9-0.6,1.6-1.3,2.3-2.1
						c0.5-0.5,1-0.9,1.7-1.2c1-0.4,0.8,0.6,0.6,0.9c0,0.1,0.1,0.1,0.2,0.1c0.1,1,0.6,2,0.6,3c0,0.9-0.3,1.9-0.6,2.8
						c-0.4,1.1-0.7,2.2-1.1,3.3c-0.1,0.4-0.3,0.8-0.4,1.2c-0.2,0.6-1-0.2-1.3-0.4c-0.5-0.3-1.1-0.5-1.7-0.4
						c-1.4,0.1-2.8,0.2-4.2,0.3c-2.2,0.1-4.6-0.2-6.7,0.3c-3.6,0.9-5.7,3.3-9.8,3.4C226.3,23.2,229.2,22.5,231.6,21.4z"/>
					<path class="st3" d="M252.1,32.4c0-0.3,0-0.6,0-0.8c0.1-0.8,1.1-1.7,1.8-2.4c0-0.2,0.1-0.3,0.2-0.5c0.2-0.9-0.7-2.3,1.1-2.7
						c0.5-0.1,1,0.3,1,0.6s-0.4,0.8-0.5,1.2c0,0.2,0,0.5,0.1,0.7c0.2,0.1,0.3,0.3,0.4,0.5c0.3,0.7,0.4,1.5,0.3,2.2
						c0.6,0.8,1.2,1.2,0.8,2.2c-0.2,0.4,0,0.8,0,1.2s0.2,0.5,0.1,0.7c0,0.1-0.1,0.1-0.1,0.1l0.6,0.6c0.8,0.6,1.5,1.3,2,2.1l0.1,0.1
						c0.1,0,0.2,0.1,0.3,0.2c0.7,0.1,1.5,0,2.2,0.1c0.8,0.1,1.6,0.7,1.6,1.2c0,0.3,0,0.6,0,0.9c-0.1,0.6,0.1,1.2,0.6,1.5
						c0.3,0.1,0.6,0.3,0.8,0.5c1.5,1,3.1,1.9,4.7,2.7c0.6,0.3,0,0.8-0.6,0.6c-0.3-0.1-0.6-0.2-0.9-0.4c-0.7-0.3-1.5-0.6-2.2-0.9
						c-0.4-0.2-1.8-1.2-2.3-1.1c-1.1,0.1-2.3-0.4-2.9-1.4c-0.6-0.9-2.5-0.8-3.3-1.7c-0.2-0.2-0.3-0.6-0.3-0.9c0-0.6-0.6-1.1-1-1.7
						c-0.1-0.1-0.1-0.1,0-0.2c-1.1-0.7-2.6-1.2-3.2-2.1c-0.1-0.2-0.2-0.4-0.2-0.6c-0.7-0.2-1.2-0.8-1.1-1.6
						C252.2,33.1,252,32.8,252.1,32.4z"/>
					<path class="st3" d="M260.8,24.1c0.1-0.5,0.5-0.9,0-1.3c-0.2-0.1-0.3-0.4-0.2-0.7c0,0,0,0,0-0.1c0.1-0.2,0.7,0,0.8,0.1
						c0.4,0.7,1.9,0.7,1.6,1.6c-0.1,0.7,0.1,1.5,0.5,2.1c0.3,0.6,0.5,1.2,0.6,1.8c0.2,0.5,0.1,1-0.2,1.4c-0.3,0.4-0.7,0.5-0.5,1
						c0.2,0.2,0.2,0.5,0.1,0.8c-0.1,0.2-0.1,0.4,0,0.6c0.4,0.3,0.8,0.4,1.2,0.5c1.2,0.2,2.4,0.6,3.4,1.3c-0.2-0.1,1.1,0.1,1.1,0.1
						c0.9,0.2,1.8,0.4,2.6,0.7c1.4,0.4,2.8,0.9,4.2,1.5c0.3,0.1,0.2,0.5-0.2,0.5c-1.1-0.1-2.1-0.3-3.2-0.4c-1.1-0.1-2.2,0-3.3-0.1
						c-2-0.2-3.2-0.5-4.2-1.7c-0.6-0.5-1.2-1-1.8-1.4c-0.2,0-0.4,0-0.6,0c-1.5-0.4-1.8-1.2-1.5-2.2c0-0.2-0.1-0.1-0.3-0.5
						s0.1-0.8,0.6-1.1C263.4,27.4,260.5,25.5,260.8,24.1z"/>
					<path class="st3" d="M204.2,46.8c0.9-0.6,1.7-1.5,2.1-2.5c0.2-1,1.1-1.8,2.1-2c0.7-0.1,1.3-0.2,2-0.2c0.9,0,1.6-0.4,2.5-0.5
						c0.7,0,1.3,0,2,0.1c1.3,0.1,2.7-0.1,3.9-0.7c0.9-0.4,2.3,0.5,1.3,1c-1.4,0.7-2.9,1.1-4.5,1.3c-0.8-0.1-1.5,0-2.3,0.2
						c-0.7,0.2-1.5,0.4-2.3,0.4c-1.4,0.1-1.7,0.2-2,1.1c-0.2,0.5-0.4,1-0.6,1.5c-0.7,1-1.8,1.5-3,1.5
						C204.4,47.9,203.6,47.2,204.2,46.8z"/>
					<path class="st3" d="M304.6,28.6c1.4,1.1,1.9,2.3,3.2,3.4c0.4,0.3,0.7,0.8,0.7,1.3c0,0.4-0.1,0.8,0.4,1l0.4,0.1h0.2
						c0.5,0,0.9,0.2,1.2,0.6l0.1,0.1c0.5,0.7-0.8,1-1.6,0.7c-1.3-0.4-3.5-1.2-2.6-2.4s-0.1-1.5-0.6-2.4c-0.5-0.9-1.1-1.6-1.9-2.3
						C303.9,28.6,304.4,28.4,304.6,28.6z"/>
					<path class="st3" d="M324.6,34.8c0.2,0.3,1.8,0.4,2.3,0.5c0.7,0.1,1.3,0.5,1.7,1c0.3,0.7,0.9,0.7,1.8,1c0.6,0.3,1.3,0.5,2,0.4
						c0.3,0,0.5,0,0.8,0.1c0.5,0.1,1,0.5,1.3,0.9c0.6,0.9,1.7,0.5,2.6,1.1c0.6,0.4,1,1,1.1,1.7c0.1,0.6,2.6,1.2,3.2,1.4
						c0.2,0.1,0.2,0.3-0.1,0.3c-0.8-0.1-1.6-0.3-2.3-0.7c-1.2-0.5-1.5-0.4-2.5-1.2c-0.6-0.6-1.6-0.9-2.4-1.5
						c-0.2-0.2-0.4-0.4-0.5-0.6c-0.6-0.6-1.4-1-2.2-1c-2-0.4-4.4,0.3-4.8-1.5c-0.2-0.9-2.7-0.8-2.9-1.8
						C323.9,34.5,324.5,34.7,324.6,34.8z"/>
					<path class="st3" d="M277.1,18.4c1.5-0.1,3-0.1,4.6,0c1.8,0.1,3.1,0.7,4.8,0.9c3.6,0.4,5.4,3,8.5,3.9c0.1,0,0.1,0.2,0,0.2
						c-1-0.2-2-0.6-2.9-1.1c-1.6-0.6-3.1-1-4.8-1.4c-1.8-0.6-2.8-1.5-4.9-1.8c-1.7-0.2-3.4-0.1-5.1-0.2
						C276.9,18.9,276.6,18.4,277.1,18.4z"/>
					<path class="st3" d="M165.4,46.3c0.6-0.5,1.8-0.6,2.6-0.9c1.2-0.5,2.5-0.9,3.8-1.3c1-0.3,1.9-0.7,2.7-1.3
						c0.6-0.3,1.1-0.5,1.2-1c0.1-0.4,0.4-0.6,0.7-0.8c1.1-0.8,4.1-0.2,5.4-0.1c0.2,0,0.4,0,0.6,0c0.1-0.1,0.3-0.1,0.4-0.2
						c0.3-0.1,0.5-0.1,0.8,0c1.1-0.2,2.2-0.6,3.2-0.7c1.5-0.2,3.6-0.4,4.3-1.4c0.2-0.3,0.9,0,0.8,0.3c-0.8,1.3-3.3,2.1-5.3,2.6
						c-0.9,0.2-1.9,0.3-2.9,0.3c-0.3,0.3-0.7,0.6-1.1,0.8c-0.8,0.2-1.7,0.3-2.5,0.1c-1.1-0.1-1.1,0.4-1.9,0.8
						c-0.5,0.2-1,0.4-1.5,0.6c-0.6,0.5-1.3,0.9-2.1,1.1c-1.3,0.3-2.7,0.4-4,0.8c-0.7,0.2-1.4,0.4-2.1,0.7c-0.5,0.2-1.6,0.2-2,0.4
						C166.1,47.5,164.9,46.8,165.4,46.3z"/>
					<path class="st3" d="M235.7,44.7c-0.1-0.7,0.1-1.4,0.6-2c0.4-0.4,0.9-0.7,1.3-1.1c1.1-1.2,0.6-2.6,1.5-3.9
						c1.2-1.4,2.5-2.7,3.9-3.8c0.6-0.6,1.1-1.3,1.6-2.1c0.6-0.9,1-1.9,1.6-2.8c0-0.1,0.2-0.3,0.3-0.6c0.3,0,0.6,0.2,0.6,0.4
						c0.2,1.5-0.7,2.9-0.9,4.4c-0.1,1.1,1.2,2.1,1.9,3.1c0.2,0.2,0.3,0.5,0.4,0.7c-0.1-1.1-0.3-2.3-0.8-3.3c-0.2-0.7,0-1.4,0.4-1.9
						c0-1.3,0.9-2.8,1.1-4c0.1-0.3,0.8-0.1,0.7,0.2c0,0,0,0.1,0,0.1c0.1,0,0.3,0.1,0.2,0.2c-0.2,0.4-0.4,0.8-0.5,1.3
						c-0.4,1.1-0.4,2.3-0.2,3.4c0.5,1.6,1.4,3,1.4,4.7c0,0.7,0.2,1.4,0.2,2.1c-0.2,0.8-0.5,1.6-0.9,2.3c-0.7,1.8-2,3.4-2.6,5.2
						c-0.1,0.4-0.9,0.2-1-0.1c0-0.8,0.1-1.6,0.3-2.4c0.1-1,0.2-1.9,0.2-2.9c0.1-1.2-0.4-2-1.6-2.9c-0.6-0.5-1.2-1.1-1.7-1.7
						c-0.6,0.9-1.1,1.8-1.5,2.7c-0.2,0.4-0.9,0.8-1.3,1.2c-0.6,0.5-1,1.1-1.6,1.7c-0.4,0.4-0.8,0.8-1.1,1.2
						c-0.4,0.7-0.3,1.5-0.8,2.2c-0.5,0.8-1.1,1.6-1.8,2.3C235.6,47.3,235.7,46,235.7,44.7z"/>
					<path class="st3" d="M261.2,16.4c-0.3-0.4,0.3-0.5,0.7-0.3c1.5,0.7,4,2.2,3.3,3.5c1.3,0.4,2.5,0.8,2.6,2c0,0.1,0,0.1,0,0.2
						l0.1,0.1c0.3,0.3,0.4,0.7,0.7,1c0.7,0.5,1.4,0.7,2.2,0.8c0.3,0.1,0.6,0.2,0.9,0.3c0.5-0.2,1-0.2,1.5,0c0.6,0.1,1.1,0.5,1.4,1.1
						c0,0,0,0.1,0,0.1c0.4,0.1,0.7,0.2,1,0.3c1.7,0.6,1.4,1.6,0.9,2.6c0.6,0.5,1.1,1.1,1.5,1.8c0.1,0.2,0.2,0.4,0.3,0.6
						c0.7,0.2,1.4,0.4,2,0.7c0.3,0.1,0.6,0.3,0.8,0.5c1.7,0.4,3,1.6,2,2.6c0.4,0.4,0.9,0.6,1.4,0.8c0.8,0.3,1.7,0.6,2.5,1
						c1,0.3,1.9,1,2.5,1.9c0.2,0.3-0.5,0.4-0.7,0.2c-1.4-1-3.1-1.9-4.8-2.4c-1.4-0.5-3.2-1.1-4-2c-0.2-0.3-0.4-0.6-0.4-1l0,0
						c-0.6,0-1.2,0-1.8-0.1c-1.8-0.4-1.5-1.3-2-2.3c-0.4-0.7-0.9-1.3-1.6-1.7c-0.8-0.3-1.6-0.7-2.4-1.2c-0.5-0.5-0.5-1.4-1.1-1.8
						c-0.8-0.4-1.6-0.7-2.5-0.8c-0.3-0.1-0.5-0.2-0.6-0.4c0,0,0-0.1,0-0.2c0-0.1,0.1-0.2,0.2-0.2c-0.2-0.1-0.4-0.3-0.6-0.6
						c-0.2-0.5-0.5-1-0.8-1.5c-0.1-0.1-0.3-0.1-0.4-0.2c-0.8-0.7-1.8-1.2-2.8-1.3c-0.7-0.2-1.4-0.8-0.8-1.2s0.3-0.5,0-1
						C262.3,17.5,261.8,16.9,261.2,16.4z"/>
					<path class="st3" d="M230.1,28.7c0.8,0.2,1.7,0.3,2.5,0.3c1.3,0,2.6,0.3,3.8,1.1c2.2,0.7,4.5,0,5.8-1.9c0.3-0.5,1-0.6,1.3-1.1
						c0.5-1-0.2-2-0.4-3c0-0.2-0.8-0.5-0.9-0.1c-0.1,0.9,0.2,2.3-1.3,2.7l-0.2,0.1l-0.4-0.3c-0.4-0.3-0.9-0.3-1.4-0.2
						c-0.6,0.4-1.3,0.6-2,0.7c-0.5,0-1,0-1.4,0.2c-0.2,0.1-0.3,0.2-0.4,0.3l0,0c-0.4,0-0.8,0-1.2,0.1c-1.3-0.2-2.6-0.1-3.9,0.2
						C229.2,27.9,229.5,28.5,230.1,28.7z M237.1,28.7c0.4,0,0.8,0,1.2,0h0.1c-0.1,0.1-0.3,0.1-0.4,0.2
						C237.6,28.9,237.3,28.9,237.1,28.7L237.1,28.7z"/>
					<path class="st3" d="M83.8,50.2c1.9,0,3.8,0,5.7,0c-0.4-0.2-0.5-0.8,0.3-0.7c0.4,0,0.8,0,1.2-0.1c0.2-0.1,0.5-0.1,0.8-0.2
						c-0.3-0.5,0.3-1,1.2-0.9c0.8,0,1.5,0.3,2.1,0.8c0.1,0,0.1,0.1,0.1,0.1c0.6-0.1,1.1-0.1,1.7-0.2c2.2-0.3,3.3-1,5.2-1.7
						c1.3-0.4,2.7-0.5,4-0.3c1.8,0.1,3.8,0.2,5.6,0.2c0.3,0,0.5,0.4,0.2,0.4c-1.4,0.1-2.9,0.4-4.3,0.4c-1,0-2-0.1-2.9-0.1
						c-0.8,0.1-1.5,0.3-2.2,0.6h0.1c1.4-0.3,2.7,1.3,1,1.7c-0.7,0.2-1.3,0.5-2,0.8c-1,0.2-2,0.4-3,0.3c-1.2-0.1-2.4-0.1-3.5,0.1
						c-0.5,0.1-1.1,0.1-1.6-0.2l-0.2-0.1c-0.5,0.1-1,0-1.5-0.1c-0.5-0.1-0.9-0.3-1.2-0.7h-0.3c-2.1,0.1-4.1,0.3-6.2,0.2
						C83.7,50.6,83.4,50.2,83.8,50.2z"/>
					<path class="st3" d="M164.2,18c1.2,0.3,2.1,0,3.1,0.6c0.9,0.5,1.8,0.9,2.8,1.1c0.4,0.1,0.8,0.4,1.2,0.5
						c1.1,0.2,2.1,0.8,2.9,1.6c0.4,0.4,0.4,1,0.8,1.4c0.7,0.6,1.5,1.1,2.4,1.4c0.3,0.1,0.5,0.6-0.1,0.5c-1.4-0.1-2.3-0.9-3.6-1.3
						c-1.1-0.4-2.1-1.1-2.9-2c-0.3-0.3-0.5-0.7-0.5-1.1c0-0.4-1.2-0.4-1.7-0.6c-0.6-0.2-1.1-0.4-1.6-0.8c-0.9-0.4-1.9-0.8-2.9-1
						C163.8,18.3,163.8,17.9,164.2,18z"/>
					<path class="st3" d="M124.2,30.1c3.4-1.3,6.7-2.7,9.9-4s7-2.1,10.7-3c1.8-0.5,3.6-1.1,5.3-2c1.3-0.8,2.8-1.2,4.3-1.4
						c0.6-0.1,3.6,0,3.8-0.3c0.5-0.8,2.1-1,2.8-1.8c0.1-0.1,0.5,0,0.4,0.1c-0.2,0.7-0.9,1.1-1.7,1.7c-0.4,0.3-0.1,0.7-0.3,1
						s-0.5,0.4-0.9,0.6c-1.4,0.6-2.9,0.9-4.4,1c-2.2,0.1-4.4,0.5-6.6,1c-3.8,1.1-7.9,1.8-11.4,3.2c-3.6,1.7-7.4,3.2-11.2,4.5
						C124.4,31.1,123.5,30.4,124.2,30.1z"/>
					<path class="st3" d="M110.7,38.1c0.8-0.4,1.7-0.6,2.6-0.8c1.1-0.1,2.2-0.2,3.2-0.4c0.7-0.7,1.8-0.7,2.8-0.8
						c0.1-0.2,0.3-0.3,0.7-0.3c1.8-0.1,3.7-0.7,5.2,0c0.2,0,0.4-0.1,0.6-0.2c1.3-0.5,1.8-1.4,3.2-1.8c0.1,0,0.1,0,0.2,0
						c0.3-0.6,0.7-1.2,1.1-1.8c0.1-0.2,0.7,0,0.6,0.2c-0.2,0.6-1,2.3-0.3,2.8c0.4,0.2,0.7,0.6,0.9,1.1c0.4,1.1-1.8,1-2.5,1.5
						c-0.6,0.3-1.2,0.5-1.9,0.6c-0.9,0.2-1.7,0.5-2.5,0.9c-1.9,0.8-3.9,1.3-5.9,1.4c-0.6,0-1-0.6-0.5-0.8c1.7-0.7,3.9-1,5.4-1.9
						c0.6-0.3,1.5-0.7,2.1-1c-0.6,0-1.3,0-1.9,0c-0.8,0.1-1.6,0.3-2.4,0.4c-0.6,0.2-1.2,0.3-1.8,0.3l-1.2,0.1
						c-0.2,0.1-0.4,0.2-0.7,0.3c-1,0.1-2,0.2-3.1,0.2c-1.2,0.2-2.3,0.3-3.5,0.4C110.8,38.5,110.4,38.2,110.7,38.1z"/>
					<path class="st3" d="M62.5,44.4c1.9,0,3.8,0,5.7,0c-0.4-0.2-0.5-0.8,0.3-0.7c0.4,0,0.8,0,1.2-0.1c0.2-0.1,0.5-0.1,0.8-0.2
						c-0.3-0.5,0.3-1,1.2-0.9c0.8,0,1.5,0.3,2.1,0.8l0.1,0.1c0.6-0.1,1.1-0.1,1.7-0.2c2.2-0.3,3.3-1,5.1-1.7c1.3-0.4,2.7-0.5,4-0.3
						c1.8,0.1,3.8,0.2,5.6,0.2c0.3,0,0.5,0.4,0.2,0.4c-1.4,0-2.9,0.4-4.3,0.4c-1,0-2-0.1-3-0.1c-0.8,0.1-1.5,0.3-2.2,0.6H81
						c1.4-0.3,2.7,1.3,1,1.7c-0.7,0.2-1.3,0.5-2,0.8c-1,0.2-2,0.4-3,0.3c-1.3,0.1-2.3-0.2-3.5,0.1c-0.5,0.1-1,0.1-1.5-0.2l-0.2-0.1
						c-0.5,0.1-1,0-1.5-0.1c-0.5-0.1-0.9-0.3-1.2-0.7l-0.3-0.1c-2.1,0.1-4.2,0.3-6.2,0.2C62.3,44.8,62.1,44.4,62.5,44.4z"/>
					<path class="st3" d="M124.9,56.2c0,0.5-0.8,1-1.5,1.4c-2.6,1.2-5.3,2.2-8.1,2.9c-3.4,1-6.7,1.9-10.2,2.7
						c-6.9,1.7-13.8,3.3-20.8,4.8c-1.4,0.3-2.9,0.6-4.4,0.9v-1.1c6.8-1.1,13.4-2.7,20-4.6c8-2.3,15.9-4.8,24.2-6.8L124.9,56.2z"/>
					<path class="st3" d="M140.2,60.6c1.9,0.4,3.9,0.6,5.8,0.5c4.4-0.1,9.4-0.3,13.3-1.6c2-0.7,3.9-1.6,5.7-2.7c1.9-1.2,4-2.3,6.1-3
						c3.2-0.9,6.8-1,10.2-1.3c-1.5,0.3-2.9,0.6-4.4,0.9c-1.7,0.3-3.5,0.8-5.1,1.3c-1.7,0.7-3.3,1.5-4.9,2.6
						c-0.1,0.1-0.1,0.3,0.1,0.2c0.7-0.1,1.4-0.1,2.1,0c-1.2,0.8-2.3,1.7-3.5,2.5c-1.2,0.9-2.6,1.6-4.1,2c-3,0.8-6.4,0-9.5,0
						c-3.6,0-7.4,0.6-11,0.1c-3-0.4-5.2-1.8-8-2.4C135.6,59.2,137.8,60,140.2,60.6z"/>
					<path class="st3" d="M171.2,61.4c4.1,0.5,8-1.7,11.6-2.6c0.3-0.1,0.7,0.2,0.4,0.3c-0.8,0.5-1.7,0.8-2.4,1.3
						c-0.8,0.5-1.7,0.8-2.7,0.9c-1.1,0.2-2.2,0.4-3.3,0.6c-1.2,0.1-2.4,0-3.6-0.2C171,61.7,170.9,61.4,171.2,61.4z"/>
					<path class="st4" d="M303.9,115.1H0V16.2c0,0,33.8,1.1,46.1,3.9s41.8,9,60.7,16.8s67.9,44,197.1,49.3V115.1z"/>
					<path class="st5" d="M112.1,146.9h263V0c0,0-13.8,3.3-26,6.1s-29.4,6.4-48.5,18.2c-17.4,10.8-130.2,91-188.1,91L112.1,146.9z"
						/>
					<path class="st6" d="M-2.4,87.5c13.8-0.6,27.5-0.3,41.2,0c15,0.4,30,1.9,44.9,1.9c32,0.1,64.2,4.6,95.9,8.2
						c13.7,1.5,28.2,3.2,41.4,7.3s25.2,10.6,38.1,15.4c6,2.2,11.8,4.9,17.3,8c13.4,7.3,28,11.4,41.5,18.2H-3.7L-2.4,87.5z"/>
					<rect x="102.5" y="55.9" class="st7" width="1.5" height="45.8"/>
					<path class="st7" d="M97,63.3c-0.6,0.4-1.1,0.9-1.4,1.6c-0.2,0.7,0.3,1.6,1,1.5c-1.1,0.4-1.1,0.8-1.9,1.6
						c-0.8,1-0.7,2.4,0.2,3.3c-1.8,1.3-2.6,3.6-2,5.8c-0.7,1.5,0,3.3,1.5,4c0.4,0.2,0.7,0.2,1.1,0.3l-0.3,2c2.4,1.3,4.2,0,6.9,0.5
						c1,0.2,2.8-0.5,3.8,0c0.8,0.4,1.7,0.7,2.6,0.9c0.3,0.1,0.7,0.1,1,0c0.6-0.3,1-1,0.9-1.7c-0.1-0.7-0.4-1.3-0.7-1.9
						c0.8,0.2,1.6-0.2,2-0.9c0.4-0.7,0.3-1.6-0.1-2.3c-0.3-0.4-0.5-0.8-0.6-1.2c0-0.6,0.6-1.1,0.9-1.7c0.7-1.5-1.1-3-1-4.6
						c0.1-1,0.9-1.9,0.8-2.9c-0.2-1.3-2-2.1-1.8-3.4c0.1-0.3,0.2-0.6,0.2-0.8c0-0.6-0.7-1.1-1.3-1.3c-1.7-0.8-3.5-1.6-5.3-2.2
						C100.6,59,100.2,61.1,97,63.3z"/>
					<rect x="71.2" y="55.9" class="st7" width="1.5" height="45.8"/>
					<path class="st7" d="M65.6,63.3c-0.6,0.4-1.1,0.9-1.4,1.6c-0.2,0.7,0.3,1.6,1,1.5c-1.1,0.4-1.1,0.8-1.9,1.6
						c-0.8,1-0.7,2.4,0.2,3.3c-1.8,1.3-2.6,3.6-2,5.8c-0.7,1.5,0,3.3,1.5,4c0.4,0.2,0.7,0.2,1.1,0.3l-0.3,2c2.4,1.3,4.3,0,6.9,0.5
						c1,0.2,2.8-0.5,3.8,0c0.8,0.4,1.7,0.7,2.6,0.9c0.3,0.1,0.7,0.1,1,0c0.6-0.3,1-1,0.9-1.7c-0.1-0.7-0.3-1.3-0.7-1.9
						c0.8,0.2,1.6-0.1,2.1-0.9c0.4-0.7,0.3-1.6-0.1-2.3c-0.3-0.4-0.5-0.8-0.6-1.2c0-0.6,0.6-1.1,0.9-1.7c0.7-1.5-1.1-3-1-4.6
						c0.1-1,0.9-1.9,0.8-2.9c-0.2-1.3-2-2.1-1.8-3.4c0.1-0.3,0.2-0.6,0.2-0.8c0-0.6-0.7-1.1-1.3-1.3c-1.7-0.8-3.5-1.6-5.3-2.2
						C69.2,59,68.8,61.1,65.6,63.3z"/>
				</g>
			</g>
		</g>
	</g>
</g>
</svg>
